<?xml version="1.0" encoding="utf-8"?>
<svg xmlns="http://www.w3.org/2000/svg" xmlns:xlink="http://www.w3.org/1999/xlink" width="600" height="400" viewBox="0 0 2400 1600">
<defs>
  <clipPath id="clip060">
    <rect x="0" y="0" width="2400" height="1600"/>
  </clipPath>
</defs>
<path clip-path="url(#clip060)" d="
M0 1600 L2400 1600 L2400 0 L0 0  Z
  " fill="#ffffff" fill-rule="evenodd" fill-opacity="1"/>
<defs>
  <clipPath id="clip061">
    <rect x="480" y="0" width="1681" height="1600"/>
  </clipPath>
</defs>
<path clip-path="url(#clip060)" d="
M202.177 1486.45 L2352.76 1486.45 L2352.76 47.2441 L202.177 47.2441  Z
  " fill="#ffffff" fill-rule="evenodd" fill-opacity="1"/>
<defs>
  <clipPath id="clip062">
    <rect x="202" y="47" width="2152" height="1440"/>
  </clipPath>
</defs>
<polyline clip-path="url(#clip062)" style="stroke:#000000; stroke-linecap:round; stroke-linejoin:round; stroke-width:2; stroke-opacity:0.1; fill:none" points="
  320.462,1486.45 320.462,47.2441 
  "/>
<polyline clip-path="url(#clip062)" style="stroke:#000000; stroke-linecap:round; stroke-linejoin:round; stroke-width:2; stroke-opacity:0.1; fill:none" points="
  794.227,1486.45 794.227,47.2441 
  "/>
<polyline clip-path="url(#clip062)" style="stroke:#000000; stroke-linecap:round; stroke-linejoin:round; stroke-width:2; stroke-opacity:0.1; fill:none" points="
  1267.99,1486.45 1267.99,47.2441 
  "/>
<polyline clip-path="url(#clip062)" style="stroke:#000000; stroke-linecap:round; stroke-linejoin:round; stroke-width:2; stroke-opacity:0.1; fill:none" points="
  1741.76,1486.45 1741.76,47.2441 
  "/>
<polyline clip-path="url(#clip062)" style="stroke:#000000; stroke-linecap:round; stroke-linejoin:round; stroke-width:2; stroke-opacity:0.1; fill:none" points="
  2215.52,1486.45 2215.52,47.2441 
  "/>
<polyline clip-path="url(#clip060)" style="stroke:#000000; stroke-linecap:round; stroke-linejoin:round; stroke-width:4; stroke-opacity:1; fill:none" points="
  202.177,1486.45 2352.76,1486.45 
  "/>
<polyline clip-path="url(#clip060)" style="stroke:#000000; stroke-linecap:round; stroke-linejoin:round; stroke-width:4; stroke-opacity:1; fill:none" points="
  320.462,1486.45 320.462,1467.55 
  "/>
<polyline clip-path="url(#clip060)" style="stroke:#000000; stroke-linecap:round; stroke-linejoin:round; stroke-width:4; stroke-opacity:1; fill:none" points="
  794.227,1486.45 794.227,1467.55 
  "/>
<polyline clip-path="url(#clip060)" style="stroke:#000000; stroke-linecap:round; stroke-linejoin:round; stroke-width:4; stroke-opacity:1; fill:none" points="
  1267.99,1486.45 1267.99,1467.55 
  "/>
<polyline clip-path="url(#clip060)" style="stroke:#000000; stroke-linecap:round; stroke-linejoin:round; stroke-width:4; stroke-opacity:1; fill:none" points="
  1741.76,1486.45 1741.76,1467.55 
  "/>
<polyline clip-path="url(#clip060)" style="stroke:#000000; stroke-linecap:round; stroke-linejoin:round; stroke-width:4; stroke-opacity:1; fill:none" points="
  2215.52,1486.45 2215.52,1467.55 
  "/>
<path clip-path="url(#clip060)" d="M282.766 1517.37 Q279.155 1517.37 277.326 1520.93 Q275.52 1524.47 275.52 1531.6 Q275.52 1538.71 277.326 1542.27 Q279.155 1545.82 282.766 1545.82 Q286.4 1545.82 288.206 1542.27 Q290.034 1538.71 290.034 1531.6 Q290.034 1524.47 288.206 1520.93 Q286.4 1517.37 282.766 1517.37 M282.766 1513.66 Q288.576 1513.66 291.632 1518.27 Q294.71 1522.85 294.71 1531.6 Q294.71 1540.33 291.632 1544.94 Q288.576 1549.52 282.766 1549.52 Q276.956 1549.52 273.877 1544.94 Q270.821 1540.33 270.821 1531.6 Q270.821 1522.85 273.877 1518.27 Q276.956 1513.66 282.766 1513.66 Z" fill="#000000" fill-rule="evenodd" fill-opacity="1" /><path clip-path="url(#clip060)" d="M302.928 1542.97 L307.812 1542.97 L307.812 1548.85 L302.928 1548.85 L302.928 1542.97 Z" fill="#000000" fill-rule="evenodd" fill-opacity="1" /><path clip-path="url(#clip060)" d="M327.997 1517.37 Q324.386 1517.37 322.557 1520.93 Q320.752 1524.47 320.752 1531.6 Q320.752 1538.71 322.557 1542.27 Q324.386 1545.82 327.997 1545.82 Q331.631 1545.82 333.437 1542.27 Q335.266 1538.71 335.266 1531.6 Q335.266 1524.47 333.437 1520.93 Q331.631 1517.37 327.997 1517.37 M327.997 1513.66 Q333.807 1513.66 336.863 1518.27 Q339.941 1522.85 339.941 1531.6 Q339.941 1540.33 336.863 1544.94 Q333.807 1549.52 327.997 1549.52 Q322.187 1549.52 319.108 1544.94 Q316.053 1540.33 316.053 1531.6 Q316.053 1522.85 319.108 1518.27 Q322.187 1513.66 327.997 1513.66 Z" fill="#000000" fill-rule="evenodd" fill-opacity="1" /><path clip-path="url(#clip060)" d="M358.159 1517.37 Q354.548 1517.37 352.719 1520.93 Q350.914 1524.47 350.914 1531.6 Q350.914 1538.71 352.719 1542.27 Q354.548 1545.82 358.159 1545.82 Q361.793 1545.82 363.599 1542.27 Q365.427 1538.71 365.427 1531.6 Q365.427 1524.47 363.599 1520.93 Q361.793 1517.37 358.159 1517.37 M358.159 1513.66 Q363.969 1513.66 367.025 1518.27 Q370.103 1522.85 370.103 1531.6 Q370.103 1540.33 367.025 1544.94 Q363.969 1549.52 358.159 1549.52 Q352.349 1549.52 349.27 1544.94 Q346.215 1540.33 346.215 1531.6 Q346.215 1522.85 349.27 1518.27 Q352.349 1513.66 358.159 1513.66 Z" fill="#000000" fill-rule="evenodd" fill-opacity="1" /><path clip-path="url(#clip060)" d="M757.028 1517.37 Q753.417 1517.37 751.588 1520.93 Q749.782 1524.47 749.782 1531.6 Q749.782 1538.71 751.588 1542.27 Q753.417 1545.82 757.028 1545.82 Q760.662 1545.82 762.468 1542.27 Q764.296 1538.71 764.296 1531.6 Q764.296 1524.47 762.468 1520.93 Q760.662 1517.37 757.028 1517.37 M757.028 1513.66 Q762.838 1513.66 765.894 1518.27 Q768.972 1522.85 768.972 1531.6 Q768.972 1540.33 765.894 1544.94 Q762.838 1549.52 757.028 1549.52 Q751.218 1549.52 748.139 1544.94 Q745.083 1540.33 745.083 1531.6 Q745.083 1522.85 748.139 1518.27 Q751.218 1513.66 757.028 1513.66 Z" fill="#000000" fill-rule="evenodd" fill-opacity="1" /><path clip-path="url(#clip060)" d="M777.19 1542.97 L782.074 1542.97 L782.074 1548.85 L777.19 1548.85 L777.19 1542.97 Z" fill="#000000" fill-rule="evenodd" fill-opacity="1" /><path clip-path="url(#clip060)" d="M796.287 1544.91 L812.606 1544.91 L812.606 1548.85 L790.662 1548.85 L790.662 1544.91 Q793.324 1542.16 797.907 1537.53 Q802.514 1532.88 803.694 1531.53 Q805.94 1529.01 806.819 1527.27 Q807.722 1525.51 807.722 1523.82 Q807.722 1521.07 805.778 1519.33 Q803.856 1517.6 800.754 1517.6 Q798.555 1517.6 796.102 1518.36 Q793.671 1519.13 790.893 1520.68 L790.893 1515.95 Q793.717 1514.82 796.171 1514.24 Q798.625 1513.66 800.662 1513.66 Q806.032 1513.66 809.227 1516.35 Q812.421 1519.03 812.421 1523.52 Q812.421 1525.65 811.611 1527.57 Q810.824 1529.47 808.717 1532.07 Q808.139 1532.74 805.037 1535.95 Q801.935 1539.15 796.287 1544.91 Z" fill="#000000" fill-rule="evenodd" fill-opacity="1" /><path clip-path="url(#clip060)" d="M822.467 1514.29 L840.824 1514.29 L840.824 1518.22 L826.75 1518.22 L826.75 1526.7 Q827.768 1526.35 828.787 1526.19 Q829.805 1526 830.824 1526 Q836.611 1526 839.99 1529.17 Q843.37 1532.34 843.37 1537.76 Q843.37 1543.34 839.898 1546.44 Q836.426 1549.52 830.106 1549.52 Q827.93 1549.52 825.662 1549.15 Q823.416 1548.78 821.009 1548.04 L821.009 1543.34 Q823.092 1544.47 825.314 1545.03 Q827.537 1545.58 830.014 1545.58 Q834.018 1545.58 836.356 1543.48 Q838.694 1541.37 838.694 1537.76 Q838.694 1534.15 836.356 1532.04 Q834.018 1529.94 830.014 1529.94 Q828.139 1529.94 826.264 1530.35 Q824.412 1530.77 822.467 1531.65 L822.467 1514.29 Z" fill="#000000" fill-rule="evenodd" fill-opacity="1" /><path clip-path="url(#clip060)" d="M1230.29 1517.37 Q1226.68 1517.37 1224.85 1520.93 Q1223.05 1524.47 1223.05 1531.6 Q1223.05 1538.71 1224.85 1542.27 Q1226.68 1545.82 1230.29 1545.82 Q1233.93 1545.82 1235.73 1542.27 Q1237.56 1538.71 1237.56 1531.6 Q1237.56 1524.47 1235.73 1520.93 Q1233.93 1517.37 1230.29 1517.37 M1230.29 1513.66 Q1236.1 1513.66 1239.16 1518.27 Q1242.24 1522.85 1242.24 1531.6 Q1242.24 1540.33 1239.16 1544.94 Q1236.1 1549.52 1230.29 1549.52 Q1224.48 1549.52 1221.41 1544.94 Q1218.35 1540.33 1218.35 1531.6 Q1218.35 1522.85 1221.41 1518.27 Q1224.48 1513.66 1230.29 1513.66 Z" fill="#000000" fill-rule="evenodd" fill-opacity="1" /><path clip-path="url(#clip060)" d="M1250.46 1542.97 L1255.34 1542.97 L1255.34 1548.85 L1250.46 1548.85 L1250.46 1542.97 Z" fill="#000000" fill-rule="evenodd" fill-opacity="1" /><path clip-path="url(#clip060)" d="M1265.57 1514.29 L1283.93 1514.29 L1283.93 1518.22 L1269.85 1518.22 L1269.85 1526.7 Q1270.87 1526.35 1271.89 1526.19 Q1272.91 1526 1273.93 1526 Q1279.72 1526 1283.1 1529.17 Q1286.47 1532.34 1286.47 1537.76 Q1286.47 1543.34 1283 1546.44 Q1279.53 1549.52 1273.21 1549.52 Q1271.03 1549.52 1268.77 1549.15 Q1266.52 1548.78 1264.11 1548.04 L1264.11 1543.34 Q1266.2 1544.47 1268.42 1545.03 Q1270.64 1545.58 1273.12 1545.58 Q1277.12 1545.58 1279.46 1543.48 Q1281.8 1541.37 1281.8 1537.76 Q1281.8 1534.15 1279.46 1532.04 Q1277.12 1529.94 1273.12 1529.94 Q1271.24 1529.94 1269.37 1530.35 Q1267.52 1530.77 1265.57 1531.65 L1265.57 1514.29 Z" fill="#000000" fill-rule="evenodd" fill-opacity="1" /><path clip-path="url(#clip060)" d="M1305.69 1517.37 Q1302.08 1517.37 1300.25 1520.93 Q1298.44 1524.47 1298.44 1531.6 Q1298.44 1538.71 1300.25 1542.27 Q1302.08 1545.82 1305.69 1545.82 Q1309.32 1545.82 1311.13 1542.27 Q1312.96 1538.71 1312.96 1531.6 Q1312.96 1524.47 1311.13 1520.93 Q1309.32 1517.37 1305.69 1517.37 M1305.69 1513.66 Q1311.5 1513.66 1314.55 1518.27 Q1317.63 1522.85 1317.63 1531.6 Q1317.63 1540.33 1314.55 1544.94 Q1311.5 1549.52 1305.69 1549.52 Q1299.88 1549.52 1296.8 1544.94 Q1293.74 1540.33 1293.74 1531.6 Q1293.74 1522.85 1296.8 1518.27 Q1299.88 1513.66 1305.69 1513.66 Z" fill="#000000" fill-rule="evenodd" fill-opacity="1" /><path clip-path="url(#clip060)" d="M1704.56 1517.37 Q1700.95 1517.37 1699.12 1520.93 Q1697.31 1524.47 1697.31 1531.6 Q1697.31 1538.71 1699.12 1542.27 Q1700.95 1545.82 1704.56 1545.82 Q1708.19 1545.82 1710 1542.27 Q1711.82 1538.71 1711.82 1531.6 Q1711.82 1524.47 1710 1520.93 Q1708.19 1517.37 1704.56 1517.37 M1704.56 1513.66 Q1710.37 1513.66 1713.42 1518.27 Q1716.5 1522.85 1716.5 1531.6 Q1716.5 1540.33 1713.42 1544.94 Q1710.37 1549.52 1704.56 1549.52 Q1698.75 1549.52 1695.67 1544.94 Q1692.61 1540.33 1692.61 1531.6 Q1692.61 1522.85 1695.67 1518.27 Q1698.75 1513.66 1704.56 1513.66 Z" fill="#000000" fill-rule="evenodd" fill-opacity="1" /><path clip-path="url(#clip060)" d="M1724.72 1542.97 L1729.6 1542.97 L1729.6 1548.85 L1724.72 1548.85 L1724.72 1542.97 Z" fill="#000000" fill-rule="evenodd" fill-opacity="1" /><path clip-path="url(#clip060)" d="M1738.61 1514.29 L1760.83 1514.29 L1760.83 1516.28 L1748.28 1548.85 L1743.4 1548.85 L1755.2 1518.22 L1738.61 1518.22 L1738.61 1514.29 Z" fill="#000000" fill-rule="evenodd" fill-opacity="1" /><path clip-path="url(#clip060)" d="M1770 1514.29 L1788.35 1514.29 L1788.35 1518.22 L1774.28 1518.22 L1774.28 1526.7 Q1775.3 1526.35 1776.32 1526.19 Q1777.33 1526 1778.35 1526 Q1784.14 1526 1787.52 1529.17 Q1790.9 1532.34 1790.9 1537.76 Q1790.9 1543.34 1787.43 1546.44 Q1783.95 1549.52 1777.63 1549.52 Q1775.46 1549.52 1773.19 1549.15 Q1770.94 1548.78 1768.54 1548.04 L1768.54 1543.34 Q1770.62 1544.47 1772.84 1545.03 Q1775.07 1545.58 1777.54 1545.58 Q1781.55 1545.58 1783.88 1543.48 Q1786.22 1541.37 1786.22 1537.76 Q1786.22 1534.15 1783.88 1532.04 Q1781.55 1529.94 1777.54 1529.94 Q1775.67 1529.94 1773.79 1530.35 Q1771.94 1530.77 1770 1531.65 L1770 1514.29 Z" fill="#000000" fill-rule="evenodd" fill-opacity="1" /><path clip-path="url(#clip060)" d="M2167.59 1544.91 L2175.23 1544.91 L2175.23 1518.55 L2166.92 1520.21 L2166.92 1515.95 L2175.18 1514.29 L2179.86 1514.29 L2179.86 1544.91 L2187.5 1544.91 L2187.5 1548.85 L2167.59 1548.85 L2167.59 1544.91 Z" fill="#000000" fill-rule="evenodd" fill-opacity="1" /><path clip-path="url(#clip060)" d="M2196.94 1542.97 L2201.83 1542.97 L2201.83 1548.85 L2196.94 1548.85 L2196.94 1542.97 Z" fill="#000000" fill-rule="evenodd" fill-opacity="1" /><path clip-path="url(#clip060)" d="M2222.01 1517.37 Q2218.4 1517.37 2216.57 1520.93 Q2214.77 1524.47 2214.77 1531.6 Q2214.77 1538.71 2216.57 1542.27 Q2218.4 1545.82 2222.01 1545.82 Q2225.65 1545.82 2227.45 1542.27 Q2229.28 1538.71 2229.28 1531.6 Q2229.28 1524.47 2227.45 1520.93 Q2225.65 1517.37 2222.01 1517.37 M2222.01 1513.66 Q2227.82 1513.66 2230.88 1518.27 Q2233.96 1522.85 2233.96 1531.6 Q2233.96 1540.33 2230.88 1544.94 Q2227.82 1549.52 2222.01 1549.52 Q2216.2 1549.52 2213.12 1544.94 Q2210.07 1540.33 2210.07 1531.6 Q2210.07 1522.85 2213.12 1518.27 Q2216.2 1513.66 2222.01 1513.66 Z" fill="#000000" fill-rule="evenodd" fill-opacity="1" /><path clip-path="url(#clip060)" d="M2252.17 1517.37 Q2248.56 1517.37 2246.73 1520.93 Q2244.93 1524.47 2244.93 1531.6 Q2244.93 1538.71 2246.73 1542.27 Q2248.56 1545.82 2252.17 1545.82 Q2255.81 1545.82 2257.61 1542.27 Q2259.44 1538.71 2259.44 1531.6 Q2259.44 1524.47 2257.61 1520.93 Q2255.81 1517.37 2252.17 1517.37 M2252.17 1513.66 Q2257.98 1513.66 2261.04 1518.27 Q2264.12 1522.85 2264.12 1531.6 Q2264.12 1540.33 2261.04 1544.94 Q2257.98 1549.52 2252.17 1549.52 Q2246.36 1549.52 2243.29 1544.94 Q2240.23 1540.33 2240.23 1531.6 Q2240.23 1522.85 2243.29 1518.27 Q2246.36 1513.66 2252.17 1513.66 Z" fill="#000000" fill-rule="evenodd" fill-opacity="1" /><polyline clip-path="url(#clip062)" style="stroke:#000000; stroke-linecap:round; stroke-linejoin:round; stroke-width:2; stroke-opacity:0.1; fill:none" points="
  202.177,1445.72 2352.76,1445.72 
  "/>
<polyline clip-path="url(#clip062)" style="stroke:#000000; stroke-linecap:round; stroke-linejoin:round; stroke-width:2; stroke-opacity:0.1; fill:none" points="
  202.177,1175.36 2352.76,1175.36 
  "/>
<polyline clip-path="url(#clip062)" style="stroke:#000000; stroke-linecap:round; stroke-linejoin:round; stroke-width:2; stroke-opacity:0.1; fill:none" points="
  202.177,904.999 2352.76,904.999 
  "/>
<polyline clip-path="url(#clip062)" style="stroke:#000000; stroke-linecap:round; stroke-linejoin:round; stroke-width:2; stroke-opacity:0.1; fill:none" points="
  202.177,634.641 2352.76,634.641 
  "/>
<polyline clip-path="url(#clip062)" style="stroke:#000000; stroke-linecap:round; stroke-linejoin:round; stroke-width:2; stroke-opacity:0.1; fill:none" points="
  202.177,364.282 2352.76,364.282 
  "/>
<polyline clip-path="url(#clip062)" style="stroke:#000000; stroke-linecap:round; stroke-linejoin:round; stroke-width:2; stroke-opacity:0.1; fill:none" points="
  202.177,93.9242 2352.76,93.9242 
  "/>
<polyline clip-path="url(#clip060)" style="stroke:#000000; stroke-linecap:round; stroke-linejoin:round; stroke-width:4; stroke-opacity:1; fill:none" points="
  202.177,1486.45 202.177,47.2441 
  "/>
<polyline clip-path="url(#clip060)" style="stroke:#000000; stroke-linecap:round; stroke-linejoin:round; stroke-width:4; stroke-opacity:1; fill:none" points="
  202.177,1445.72 221.074,1445.72 
  "/>
<polyline clip-path="url(#clip060)" style="stroke:#000000; stroke-linecap:round; stroke-linejoin:round; stroke-width:4; stroke-opacity:1; fill:none" points="
  202.177,1175.36 221.074,1175.36 
  "/>
<polyline clip-path="url(#clip060)" style="stroke:#000000; stroke-linecap:round; stroke-linejoin:round; stroke-width:4; stroke-opacity:1; fill:none" points="
  202.177,904.999 221.074,904.999 
  "/>
<polyline clip-path="url(#clip060)" style="stroke:#000000; stroke-linecap:round; stroke-linejoin:round; stroke-width:4; stroke-opacity:1; fill:none" points="
  202.177,634.641 221.074,634.641 
  "/>
<polyline clip-path="url(#clip060)" style="stroke:#000000; stroke-linecap:round; stroke-linejoin:round; stroke-width:4; stroke-opacity:1; fill:none" points="
  202.177,364.282 221.074,364.282 
  "/>
<polyline clip-path="url(#clip060)" style="stroke:#000000; stroke-linecap:round; stroke-linejoin:round; stroke-width:4; stroke-opacity:1; fill:none" points="
  202.177,93.9242 221.074,93.9242 
  "/>
<path clip-path="url(#clip060)" d="M154.232 1431.51 Q150.621 1431.51 148.793 1435.08 Q146.987 1438.62 146.987 1445.75 Q146.987 1452.86 148.793 1456.42 Q150.621 1459.96 154.232 1459.96 Q157.867 1459.96 159.672 1456.42 Q161.501 1452.86 161.501 1445.75 Q161.501 1438.62 159.672 1435.08 Q157.867 1431.51 154.232 1431.51 M154.232 1427.81 Q160.042 1427.81 163.098 1432.42 Q166.177 1437 166.177 1445.75 Q166.177 1454.48 163.098 1459.08 Q160.042 1463.67 154.232 1463.67 Q148.422 1463.67 145.343 1459.08 Q142.288 1454.48 142.288 1445.75 Q142.288 1437 145.343 1432.42 Q148.422 1427.81 154.232 1427.81 Z" fill="#000000" fill-rule="evenodd" fill-opacity="1" /><path clip-path="url(#clip060)" d="M54.5569 1188.7 L62.1958 1188.7 L62.1958 1162.34 L53.8856 1164 L53.8856 1159.74 L62.1495 1158.08 L66.8254 1158.08 L66.8254 1188.7 L74.4642 1188.7 L74.4642 1192.64 L54.5569 1192.64 L54.5569 1188.7 Z" fill="#000000" fill-rule="evenodd" fill-opacity="1" /><path clip-path="url(#clip060)" d="M93.9086 1161.16 Q90.2975 1161.16 88.4688 1164.72 Q86.6632 1168.26 86.6632 1175.39 Q86.6632 1182.5 88.4688 1186.06 Q90.2975 1189.6 93.9086 1189.6 Q97.5428 1189.6 99.3483 1186.06 Q101.177 1182.5 101.177 1175.39 Q101.177 1168.26 99.3483 1164.72 Q97.5428 1161.16 93.9086 1161.16 M93.9086 1157.45 Q99.7187 1157.45 102.774 1162.06 Q105.853 1166.64 105.853 1175.39 Q105.853 1184.12 102.774 1188.73 Q99.7187 1193.31 93.9086 1193.31 Q88.0984 1193.31 85.0197 1188.73 Q81.9642 1184.12 81.9642 1175.39 Q81.9642 1166.64 85.0197 1162.06 Q88.0984 1157.45 93.9086 1157.45 Z" fill="#000000" fill-rule="evenodd" fill-opacity="1" /><path clip-path="url(#clip060)" d="M124.07 1161.16 Q120.459 1161.16 118.631 1164.72 Q116.825 1168.26 116.825 1175.39 Q116.825 1182.5 118.631 1186.06 Q120.459 1189.6 124.07 1189.6 Q127.705 1189.6 129.51 1186.06 Q131.339 1182.5 131.339 1175.39 Q131.339 1168.26 129.51 1164.72 Q127.705 1161.16 124.07 1161.16 M124.07 1157.45 Q129.881 1157.45 132.936 1162.06 Q136.015 1166.64 136.015 1175.39 Q136.015 1184.12 132.936 1188.73 Q129.881 1193.31 124.07 1193.31 Q118.26 1193.31 115.182 1188.73 Q112.126 1184.12 112.126 1175.39 Q112.126 1166.64 115.182 1162.06 Q118.26 1157.45 124.07 1157.45 Z" fill="#000000" fill-rule="evenodd" fill-opacity="1" /><path clip-path="url(#clip060)" d="M154.232 1161.16 Q150.621 1161.16 148.793 1164.72 Q146.987 1168.26 146.987 1175.39 Q146.987 1182.5 148.793 1186.06 Q150.621 1189.6 154.232 1189.6 Q157.867 1189.6 159.672 1186.06 Q161.501 1182.5 161.501 1175.39 Q161.501 1168.26 159.672 1164.72 Q157.867 1161.16 154.232 1161.16 M154.232 1157.45 Q160.042 1157.45 163.098 1162.06 Q166.177 1166.64 166.177 1175.39 Q166.177 1184.12 163.098 1188.73 Q160.042 1193.31 154.232 1193.31 Q148.422 1193.31 145.343 1188.73 Q142.288 1184.12 142.288 1175.39 Q142.288 1166.64 145.343 1162.06 Q148.422 1157.45 154.232 1157.45 Z" fill="#000000" fill-rule="evenodd" fill-opacity="1" /><path clip-path="url(#clip060)" d="M57.7745 918.344 L74.0939 918.344 L74.0939 922.279 L52.1495 922.279 L52.1495 918.344 Q54.8115 915.589 59.3949 910.96 Q64.0013 906.307 65.1819 904.964 Q67.4272 902.441 68.3068 900.705 Q69.2096 898.946 69.2096 897.256 Q69.2096 894.501 67.2652 892.765 Q65.3439 891.029 62.2421 891.029 Q60.043 891.029 57.5893 891.793 Q55.1588 892.557 52.381 894.108 L52.381 889.386 Q55.2051 888.251 57.6588 887.673 Q60.1124 887.094 62.1495 887.094 Q67.5198 887.094 70.7142 889.779 Q73.9087 892.464 73.9087 896.955 Q73.9087 899.085 73.0985 901.006 Q72.3115 902.904 70.205 905.497 Q69.6263 906.168 66.5245 909.386 Q63.4226 912.58 57.7745 918.344 Z" fill="#000000" fill-rule="evenodd" fill-opacity="1" /><path clip-path="url(#clip060)" d="M93.9086 890.798 Q90.2975 890.798 88.4688 894.363 Q86.6632 897.904 86.6632 905.034 Q86.6632 912.14 88.4688 915.705 Q90.2975 919.247 93.9086 919.247 Q97.5428 919.247 99.3483 915.705 Q101.177 912.14 101.177 905.034 Q101.177 897.904 99.3483 894.363 Q97.5428 890.798 93.9086 890.798 M93.9086 887.094 Q99.7187 887.094 102.774 891.701 Q105.853 896.284 105.853 905.034 Q105.853 913.761 102.774 918.367 Q99.7187 922.95 93.9086 922.95 Q88.0984 922.95 85.0197 918.367 Q81.9642 913.761 81.9642 905.034 Q81.9642 896.284 85.0197 891.701 Q88.0984 887.094 93.9086 887.094 Z" fill="#000000" fill-rule="evenodd" fill-opacity="1" /><path clip-path="url(#clip060)" d="M124.07 890.798 Q120.459 890.798 118.631 894.363 Q116.825 897.904 116.825 905.034 Q116.825 912.14 118.631 915.705 Q120.459 919.247 124.07 919.247 Q127.705 919.247 129.51 915.705 Q131.339 912.14 131.339 905.034 Q131.339 897.904 129.51 894.363 Q127.705 890.798 124.07 890.798 M124.07 887.094 Q129.881 887.094 132.936 891.701 Q136.015 896.284 136.015 905.034 Q136.015 913.761 132.936 918.367 Q129.881 922.95 124.07 922.95 Q118.26 922.95 115.182 918.367 Q112.126 913.761 112.126 905.034 Q112.126 896.284 115.182 891.701 Q118.26 887.094 124.07 887.094 Z" fill="#000000" fill-rule="evenodd" fill-opacity="1" /><path clip-path="url(#clip060)" d="M154.232 890.798 Q150.621 890.798 148.793 894.363 Q146.987 897.904 146.987 905.034 Q146.987 912.14 148.793 915.705 Q150.621 919.247 154.232 919.247 Q157.867 919.247 159.672 915.705 Q161.501 912.14 161.501 905.034 Q161.501 897.904 159.672 894.363 Q157.867 890.798 154.232 890.798 M154.232 887.094 Q160.042 887.094 163.098 891.701 Q166.177 896.284 166.177 905.034 Q166.177 913.761 163.098 918.367 Q160.042 922.95 154.232 922.95 Q148.422 922.95 145.343 918.367 Q142.288 913.761 142.288 905.034 Q142.288 896.284 145.343 891.701 Q148.422 887.094 154.232 887.094 Z" fill="#000000" fill-rule="evenodd" fill-opacity="1" /><path clip-path="url(#clip060)" d="M67.9133 633.287 Q71.2698 634.004 73.1448 636.273 Q75.0429 638.541 75.0429 641.875 Q75.0429 646.99 71.5244 649.791 Q68.0059 652.592 61.5245 652.592 Q59.3486 652.592 57.0338 652.152 Q54.7421 651.736 52.2884 650.879 L52.2884 646.365 Q54.2328 647.499 56.5477 648.078 Q58.8625 648.657 61.3856 648.657 Q65.7837 648.657 68.0754 646.921 Q70.3902 645.185 70.3902 641.875 Q70.3902 638.819 68.2374 637.106 Q66.1078 635.37 62.2884 635.37 L58.2606 635.37 L58.2606 631.527 L62.4735 631.527 Q65.9226 631.527 67.7513 630.162 Q69.58 628.773 69.58 626.18 Q69.58 623.518 67.6819 622.106 Q65.8069 620.671 62.2884 620.671 Q60.3671 620.671 58.168 621.088 Q55.969 621.504 53.3301 622.384 L53.3301 618.217 Q55.9921 617.477 58.3069 617.106 Q60.6449 616.736 62.705 616.736 Q68.0291 616.736 71.1309 619.166 Q74.2327 621.574 74.2327 625.694 Q74.2327 628.564 72.5892 630.555 Q70.9457 632.523 67.9133 633.287 Z" fill="#000000" fill-rule="evenodd" fill-opacity="1" /><path clip-path="url(#clip060)" d="M93.9086 620.439 Q90.2975 620.439 88.4688 624.004 Q86.6632 627.546 86.6632 634.675 Q86.6632 641.782 88.4688 645.347 Q90.2975 648.888 93.9086 648.888 Q97.5428 648.888 99.3483 645.347 Q101.177 641.782 101.177 634.675 Q101.177 627.546 99.3483 624.004 Q97.5428 620.439 93.9086 620.439 M93.9086 616.736 Q99.7187 616.736 102.774 621.342 Q105.853 625.926 105.853 634.675 Q105.853 643.402 102.774 648.009 Q99.7187 652.592 93.9086 652.592 Q88.0984 652.592 85.0197 648.009 Q81.9642 643.402 81.9642 634.675 Q81.9642 625.926 85.0197 621.342 Q88.0984 616.736 93.9086 616.736 Z" fill="#000000" fill-rule="evenodd" fill-opacity="1" /><path clip-path="url(#clip060)" d="M124.07 620.439 Q120.459 620.439 118.631 624.004 Q116.825 627.546 116.825 634.675 Q116.825 641.782 118.631 645.347 Q120.459 648.888 124.07 648.888 Q127.705 648.888 129.51 645.347 Q131.339 641.782 131.339 634.675 Q131.339 627.546 129.51 624.004 Q127.705 620.439 124.07 620.439 M124.07 616.736 Q129.881 616.736 132.936 621.342 Q136.015 625.926 136.015 634.675 Q136.015 643.402 132.936 648.009 Q129.881 652.592 124.07 652.592 Q118.26 652.592 115.182 648.009 Q112.126 643.402 112.126 634.675 Q112.126 625.926 115.182 621.342 Q118.26 616.736 124.07 616.736 Z" fill="#000000" fill-rule="evenodd" fill-opacity="1" /><path clip-path="url(#clip060)" d="M154.232 620.439 Q150.621 620.439 148.793 624.004 Q146.987 627.546 146.987 634.675 Q146.987 641.782 148.793 645.347 Q150.621 648.888 154.232 648.888 Q157.867 648.888 159.672 645.347 Q161.501 641.782 161.501 634.675 Q161.501 627.546 159.672 624.004 Q157.867 620.439 154.232 620.439 M154.232 616.736 Q160.042 616.736 163.098 621.342 Q166.177 625.926 166.177 634.675 Q166.177 643.402 163.098 648.009 Q160.042 652.592 154.232 652.592 Q148.422 652.592 145.343 648.009 Q142.288 643.402 142.288 634.675 Q142.288 625.926 145.343 621.342 Q148.422 616.736 154.232 616.736 Z" fill="#000000" fill-rule="evenodd" fill-opacity="1" /><path clip-path="url(#clip060)" d="M66.5939 351.077 L54.7884 369.525 L66.5939 369.525 L66.5939 351.077 M65.367 347.002 L71.2466 347.002 L71.2466 369.525 L76.1772 369.525 L76.1772 373.414 L71.2466 373.414 L71.2466 381.562 L66.5939 381.562 L66.5939 373.414 L50.9921 373.414 L50.9921 368.9 L65.367 347.002 Z" fill="#000000" fill-rule="evenodd" fill-opacity="1" /><path clip-path="url(#clip060)" d="M93.9086 350.081 Q90.2975 350.081 88.4688 353.646 Q86.6632 357.188 86.6632 364.317 Q86.6632 371.424 88.4688 374.988 Q90.2975 378.53 93.9086 378.53 Q97.5428 378.53 99.3483 374.988 Q101.177 371.424 101.177 364.317 Q101.177 357.188 99.3483 353.646 Q97.5428 350.081 93.9086 350.081 M93.9086 346.377 Q99.7187 346.377 102.774 350.984 Q105.853 355.567 105.853 364.317 Q105.853 373.044 102.774 377.65 Q99.7187 382.234 93.9086 382.234 Q88.0984 382.234 85.0197 377.65 Q81.9642 373.044 81.9642 364.317 Q81.9642 355.567 85.0197 350.984 Q88.0984 346.377 93.9086 346.377 Z" fill="#000000" fill-rule="evenodd" fill-opacity="1" /><path clip-path="url(#clip060)" d="M124.07 350.081 Q120.459 350.081 118.631 353.646 Q116.825 357.188 116.825 364.317 Q116.825 371.424 118.631 374.988 Q120.459 378.53 124.07 378.53 Q127.705 378.53 129.51 374.988 Q131.339 371.424 131.339 364.317 Q131.339 357.188 129.51 353.646 Q127.705 350.081 124.07 350.081 M124.07 346.377 Q129.881 346.377 132.936 350.984 Q136.015 355.567 136.015 364.317 Q136.015 373.044 132.936 377.65 Q129.881 382.234 124.07 382.234 Q118.26 382.234 115.182 377.65 Q112.126 373.044 112.126 364.317 Q112.126 355.567 115.182 350.984 Q118.26 346.377 124.07 346.377 Z" fill="#000000" fill-rule="evenodd" fill-opacity="1" /><path clip-path="url(#clip060)" d="M154.232 350.081 Q150.621 350.081 148.793 353.646 Q146.987 357.188 146.987 364.317 Q146.987 371.424 148.793 374.988 Q150.621 378.53 154.232 378.53 Q157.867 378.53 159.672 374.988 Q161.501 371.424 161.501 364.317 Q161.501 357.188 159.672 353.646 Q157.867 350.081 154.232 350.081 M154.232 346.377 Q160.042 346.377 163.098 350.984 Q166.177 355.567 166.177 364.317 Q166.177 373.044 163.098 377.65 Q160.042 382.234 154.232 382.234 Q148.422 382.234 145.343 377.65 Q142.288 373.044 142.288 364.317 Q142.288 355.567 145.343 350.984 Q148.422 346.377 154.232 346.377 Z" fill="#000000" fill-rule="evenodd" fill-opacity="1" /><path clip-path="url(#clip060)" d="M53.793 76.6442 L72.1494 76.6442 L72.1494 80.5793 L58.0754 80.5793 L58.0754 89.0515 Q59.0939 88.7043 60.1124 88.5422 Q61.131 88.3571 62.1495 88.3571 Q67.9365 88.3571 71.3161 91.5283 Q74.6957 94.6996 74.6957 100.116 Q74.6957 105.695 71.2235 108.797 Q67.7513 111.875 61.4319 111.875 Q59.256 111.875 56.9875 111.505 Q54.7421 111.135 52.3347 110.394 L52.3347 105.695 Q54.418 106.829 56.6402 107.385 Q58.8625 107.94 61.3393 107.94 Q65.3439 107.94 67.6819 105.834 Q70.0198 103.727 70.0198 100.116 Q70.0198 96.5052 67.6819 94.3987 Q65.3439 92.2922 61.3393 92.2922 Q59.4643 92.2922 57.5893 92.7089 Q55.7375 93.1256 53.793 94.0052 L53.793 76.6442 Z" fill="#000000" fill-rule="evenodd" fill-opacity="1" /><path clip-path="url(#clip060)" d="M93.9086 79.7228 Q90.2975 79.7228 88.4688 83.2876 Q86.6632 86.8293 86.6632 93.9589 Q86.6632 101.065 88.4688 104.63 Q90.2975 108.172 93.9086 108.172 Q97.5428 108.172 99.3483 104.63 Q101.177 101.065 101.177 93.9589 Q101.177 86.8293 99.3483 83.2876 Q97.5428 79.7228 93.9086 79.7228 M93.9086 76.0192 Q99.7187 76.0192 102.774 80.6256 Q105.853 85.2089 105.853 93.9589 Q105.853 102.686 102.774 107.292 Q99.7187 111.875 93.9086 111.875 Q88.0984 111.875 85.0197 107.292 Q81.9642 102.686 81.9642 93.9589 Q81.9642 85.2089 85.0197 80.6256 Q88.0984 76.0192 93.9086 76.0192 Z" fill="#000000" fill-rule="evenodd" fill-opacity="1" /><path clip-path="url(#clip060)" d="M124.07 79.7228 Q120.459 79.7228 118.631 83.2876 Q116.825 86.8293 116.825 93.9589 Q116.825 101.065 118.631 104.63 Q120.459 108.172 124.07 108.172 Q127.705 108.172 129.51 104.63 Q131.339 101.065 131.339 93.9589 Q131.339 86.8293 129.51 83.2876 Q127.705 79.7228 124.07 79.7228 M124.07 76.0192 Q129.881 76.0192 132.936 80.6256 Q136.015 85.2089 136.015 93.9589 Q136.015 102.686 132.936 107.292 Q129.881 111.875 124.07 111.875 Q118.26 111.875 115.182 107.292 Q112.126 102.686 112.126 93.9589 Q112.126 85.2089 115.182 80.6256 Q118.26 76.0192 124.07 76.0192 Z" fill="#000000" fill-rule="evenodd" fill-opacity="1" /><path clip-path="url(#clip060)" d="M154.232 79.7228 Q150.621 79.7228 148.793 83.2876 Q146.987 86.8293 146.987 93.9589 Q146.987 101.065 148.793 104.63 Q150.621 108.172 154.232 108.172 Q157.867 108.172 159.672 104.63 Q161.501 101.065 161.501 93.9589 Q161.501 86.8293 159.672 83.2876 Q157.867 79.7228 154.232 79.7228 M154.232 76.0192 Q160.042 76.0192 163.098 80.6256 Q166.177 85.2089 166.177 93.9589 Q166.177 102.686 163.098 107.292 Q160.042 111.875 154.232 111.875 Q148.422 111.875 145.343 107.292 Q142.288 102.686 142.288 93.9589 Q142.288 85.2089 145.343 80.6256 Q148.422 76.0192 154.232 76.0192 Z" fill="#000000" fill-rule="evenodd" fill-opacity="1" /><path clip-path="url(#clip062)" d="
M320.462 87.9763 L320.462 1445.72 L339.413 1445.72 L339.413 87.9763 L320.462 87.9763 L320.462 87.9763  Z
  " fill="#009af9" fill-rule="evenodd" fill-opacity="1"/>
<polyline clip-path="url(#clip062)" style="stroke:#000000; stroke-linecap:round; stroke-linejoin:round; stroke-width:4; stroke-opacity:1; fill:none" points="
  320.462,87.9763 320.462,1445.72 339.413,1445.72 339.413,87.9763 320.462,87.9763 
  "/>
<path clip-path="url(#clip062)" d="
M339.413 1445.72 L339.413 1445.72 L358.364 1445.72 L358.364 1445.72 L339.413 1445.72 L339.413 1445.72  Z
  " fill="#009af9" fill-rule="evenodd" fill-opacity="1"/>
<polyline clip-path="url(#clip062)" style="stroke:#000000; stroke-linecap:round; stroke-linejoin:round; stroke-width:4; stroke-opacity:1; fill:none" points="
  339.413,1445.72 339.413,1445.72 358.364,1445.72 339.413,1445.72 
  "/>
<path clip-path="url(#clip062)" d="
M358.364 1445.72 L358.364 1445.72 L377.314 1445.72 L377.314 1445.72 L358.364 1445.72 L358.364 1445.72  Z
  " fill="#009af9" fill-rule="evenodd" fill-opacity="1"/>
<polyline clip-path="url(#clip062)" style="stroke:#000000; stroke-linecap:round; stroke-linejoin:round; stroke-width:4; stroke-opacity:1; fill:none" points="
  358.364,1445.72 358.364,1445.72 377.314,1445.72 358.364,1445.72 
  "/>
<path clip-path="url(#clip062)" d="
M377.314 1445.72 L377.314 1445.72 L396.265 1445.72 L396.265 1445.72 L377.314 1445.72 L377.314 1445.72  Z
  " fill="#009af9" fill-rule="evenodd" fill-opacity="1"/>
<polyline clip-path="url(#clip062)" style="stroke:#000000; stroke-linecap:round; stroke-linejoin:round; stroke-width:4; stroke-opacity:1; fill:none" points="
  377.314,1445.72 377.314,1445.72 396.265,1445.72 377.314,1445.72 
  "/>
<path clip-path="url(#clip062)" d="
M396.265 1445.72 L396.265 1445.72 L415.215 1445.72 L415.215 1445.72 L396.265 1445.72 L396.265 1445.72  Z
  " fill="#009af9" fill-rule="evenodd" fill-opacity="1"/>
<polyline clip-path="url(#clip062)" style="stroke:#000000; stroke-linecap:round; stroke-linejoin:round; stroke-width:4; stroke-opacity:1; fill:none" points="
  396.265,1445.72 396.265,1445.72 415.215,1445.72 396.265,1445.72 
  "/>
<path clip-path="url(#clip062)" d="
M415.215 1445.72 L415.215 1445.72 L434.166 1445.72 L434.166 1445.72 L415.215 1445.72 L415.215 1445.72  Z
  " fill="#009af9" fill-rule="evenodd" fill-opacity="1"/>
<polyline clip-path="url(#clip062)" style="stroke:#000000; stroke-linecap:round; stroke-linejoin:round; stroke-width:4; stroke-opacity:1; fill:none" points="
  415.215,1445.72 415.215,1445.72 434.166,1445.72 415.215,1445.72 
  "/>
<path clip-path="url(#clip062)" d="
M434.166 1445.72 L434.166 1445.72 L453.116 1445.72 L453.116 1445.72 L434.166 1445.72 L434.166 1445.72  Z
  " fill="#009af9" fill-rule="evenodd" fill-opacity="1"/>
<polyline clip-path="url(#clip062)" style="stroke:#000000; stroke-linecap:round; stroke-linejoin:round; stroke-width:4; stroke-opacity:1; fill:none" points="
  434.166,1445.72 434.166,1445.72 453.116,1445.72 434.166,1445.72 
  "/>
<path clip-path="url(#clip062)" d="
M453.116 1445.72 L453.116 1445.72 L472.067 1445.72 L472.067 1445.72 L453.116 1445.72 L453.116 1445.72  Z
  " fill="#009af9" fill-rule="evenodd" fill-opacity="1"/>
<polyline clip-path="url(#clip062)" style="stroke:#000000; stroke-linecap:round; stroke-linejoin:round; stroke-width:4; stroke-opacity:1; fill:none" points="
  453.116,1445.72 453.116,1445.72 472.067,1445.72 453.116,1445.72 
  "/>
<path clip-path="url(#clip062)" d="
M472.067 1445.72 L472.067 1445.72 L491.018 1445.72 L491.018 1445.72 L472.067 1445.72 L472.067 1445.72  Z
  " fill="#009af9" fill-rule="evenodd" fill-opacity="1"/>
<polyline clip-path="url(#clip062)" style="stroke:#000000; stroke-linecap:round; stroke-linejoin:round; stroke-width:4; stroke-opacity:1; fill:none" points="
  472.067,1445.72 472.067,1445.72 491.018,1445.72 472.067,1445.72 
  "/>
<path clip-path="url(#clip062)" d="
M491.018 1445.72 L491.018 1445.72 L509.968 1445.72 L509.968 1445.72 L491.018 1445.72 L491.018 1445.72  Z
  " fill="#009af9" fill-rule="evenodd" fill-opacity="1"/>
<polyline clip-path="url(#clip062)" style="stroke:#000000; stroke-linecap:round; stroke-linejoin:round; stroke-width:4; stroke-opacity:1; fill:none" points="
  491.018,1445.72 491.018,1445.72 509.968,1445.72 491.018,1445.72 
  "/>
<path clip-path="url(#clip062)" d="
M509.968 1445.72 L509.968 1445.72 L528.919 1445.72 L528.919 1445.72 L509.968 1445.72 L509.968 1445.72  Z
  " fill="#009af9" fill-rule="evenodd" fill-opacity="1"/>
<polyline clip-path="url(#clip062)" style="stroke:#000000; stroke-linecap:round; stroke-linejoin:round; stroke-width:4; stroke-opacity:1; fill:none" points="
  509.968,1445.72 509.968,1445.72 528.919,1445.72 509.968,1445.72 
  "/>
<path clip-path="url(#clip062)" d="
M528.919 1445.72 L528.919 1445.72 L547.869 1445.72 L547.869 1445.72 L528.919 1445.72 L528.919 1445.72  Z
  " fill="#009af9" fill-rule="evenodd" fill-opacity="1"/>
<polyline clip-path="url(#clip062)" style="stroke:#000000; stroke-linecap:round; stroke-linejoin:round; stroke-width:4; stroke-opacity:1; fill:none" points="
  528.919,1445.72 528.919,1445.72 547.869,1445.72 528.919,1445.72 
  "/>
<path clip-path="url(#clip062)" d="
M547.869 1445.72 L547.869 1445.72 L566.82 1445.72 L566.82 1445.72 L547.869 1445.72 L547.869 1445.72  Z
  " fill="#009af9" fill-rule="evenodd" fill-opacity="1"/>
<polyline clip-path="url(#clip062)" style="stroke:#000000; stroke-linecap:round; stroke-linejoin:round; stroke-width:4; stroke-opacity:1; fill:none" points="
  547.869,1445.72 547.869,1445.72 566.82,1445.72 547.869,1445.72 
  "/>
<path clip-path="url(#clip062)" d="
M566.82 1445.72 L566.82 1445.72 L585.77 1445.72 L585.77 1445.72 L566.82 1445.72 L566.82 1445.72  Z
  " fill="#009af9" fill-rule="evenodd" fill-opacity="1"/>
<polyline clip-path="url(#clip062)" style="stroke:#000000; stroke-linecap:round; stroke-linejoin:round; stroke-width:4; stroke-opacity:1; fill:none" points="
  566.82,1445.72 566.82,1445.72 585.77,1445.72 566.82,1445.72 
  "/>
<path clip-path="url(#clip062)" d="
M585.77 1445.72 L585.77 1445.72 L604.721 1445.72 L604.721 1445.72 L585.77 1445.72 L585.77 1445.72  Z
  " fill="#009af9" fill-rule="evenodd" fill-opacity="1"/>
<polyline clip-path="url(#clip062)" style="stroke:#000000; stroke-linecap:round; stroke-linejoin:round; stroke-width:4; stroke-opacity:1; fill:none" points="
  585.77,1445.72 585.77,1445.72 604.721,1445.72 585.77,1445.72 
  "/>
<path clip-path="url(#clip062)" d="
M604.721 1445.72 L604.721 1445.72 L623.672 1445.72 L623.672 1445.72 L604.721 1445.72 L604.721 1445.72  Z
  " fill="#009af9" fill-rule="evenodd" fill-opacity="1"/>
<polyline clip-path="url(#clip062)" style="stroke:#000000; stroke-linecap:round; stroke-linejoin:round; stroke-width:4; stroke-opacity:1; fill:none" points="
  604.721,1445.72 604.721,1445.72 623.672,1445.72 604.721,1445.72 
  "/>
<path clip-path="url(#clip062)" d="
M623.672 1445.72 L623.672 1445.72 L642.622 1445.72 L642.622 1445.72 L623.672 1445.72 L623.672 1445.72  Z
  " fill="#009af9" fill-rule="evenodd" fill-opacity="1"/>
<polyline clip-path="url(#clip062)" style="stroke:#000000; stroke-linecap:round; stroke-linejoin:round; stroke-width:4; stroke-opacity:1; fill:none" points="
  623.672,1445.72 623.672,1445.72 642.622,1445.72 623.672,1445.72 
  "/>
<path clip-path="url(#clip062)" d="
M642.622 1445.72 L642.622 1445.72 L661.573 1445.72 L661.573 1445.72 L642.622 1445.72 L642.622 1445.72  Z
  " fill="#009af9" fill-rule="evenodd" fill-opacity="1"/>
<polyline clip-path="url(#clip062)" style="stroke:#000000; stroke-linecap:round; stroke-linejoin:round; stroke-width:4; stroke-opacity:1; fill:none" points="
  642.622,1445.72 642.622,1445.72 661.573,1445.72 642.622,1445.72 
  "/>
<path clip-path="url(#clip062)" d="
M661.573 1445.72 L661.573 1445.72 L680.523 1445.72 L680.523 1445.72 L661.573 1445.72 L661.573 1445.72  Z
  " fill="#009af9" fill-rule="evenodd" fill-opacity="1"/>
<polyline clip-path="url(#clip062)" style="stroke:#000000; stroke-linecap:round; stroke-linejoin:round; stroke-width:4; stroke-opacity:1; fill:none" points="
  661.573,1445.72 661.573,1445.72 680.523,1445.72 661.573,1445.72 
  "/>
<path clip-path="url(#clip062)" d="
M680.523 1445.72 L680.523 1445.72 L699.474 1445.72 L699.474 1445.72 L680.523 1445.72 L680.523 1445.72  Z
  " fill="#009af9" fill-rule="evenodd" fill-opacity="1"/>
<polyline clip-path="url(#clip062)" style="stroke:#000000; stroke-linecap:round; stroke-linejoin:round; stroke-width:4; stroke-opacity:1; fill:none" points="
  680.523,1445.72 680.523,1445.72 699.474,1445.72 680.523,1445.72 
  "/>
<path clip-path="url(#clip062)" d="
M699.474 1445.72 L699.474 1445.72 L718.424 1445.72 L718.424 1445.72 L699.474 1445.72 L699.474 1445.72  Z
  " fill="#009af9" fill-rule="evenodd" fill-opacity="1"/>
<polyline clip-path="url(#clip062)" style="stroke:#000000; stroke-linecap:round; stroke-linejoin:round; stroke-width:4; stroke-opacity:1; fill:none" points="
  699.474,1445.72 699.474,1445.72 718.424,1445.72 699.474,1445.72 
  "/>
<path clip-path="url(#clip062)" d="
M718.424 1445.72 L718.424 1445.72 L737.375 1445.72 L737.375 1445.72 L718.424 1445.72 L718.424 1445.72  Z
  " fill="#009af9" fill-rule="evenodd" fill-opacity="1"/>
<polyline clip-path="url(#clip062)" style="stroke:#000000; stroke-linecap:round; stroke-linejoin:round; stroke-width:4; stroke-opacity:1; fill:none" points="
  718.424,1445.72 718.424,1445.72 737.375,1445.72 718.424,1445.72 
  "/>
<path clip-path="url(#clip062)" d="
M737.375 1445.72 L737.375 1445.72 L756.326 1445.72 L756.326 1445.72 L737.375 1445.72 L737.375 1445.72  Z
  " fill="#009af9" fill-rule="evenodd" fill-opacity="1"/>
<polyline clip-path="url(#clip062)" style="stroke:#000000; stroke-linecap:round; stroke-linejoin:round; stroke-width:4; stroke-opacity:1; fill:none" points="
  737.375,1445.72 737.375,1445.72 756.326,1445.72 737.375,1445.72 
  "/>
<path clip-path="url(#clip062)" d="
M756.326 1445.72 L756.326 1445.72 L775.276 1445.72 L775.276 1445.72 L756.326 1445.72 L756.326 1445.72  Z
  " fill="#009af9" fill-rule="evenodd" fill-opacity="1"/>
<polyline clip-path="url(#clip062)" style="stroke:#000000; stroke-linecap:round; stroke-linejoin:round; stroke-width:4; stroke-opacity:1; fill:none" points="
  756.326,1445.72 756.326,1445.72 775.276,1445.72 756.326,1445.72 
  "/>
<path clip-path="url(#clip062)" d="
M775.276 1445.72 L775.276 1445.72 L794.227 1445.72 L794.227 1445.72 L775.276 1445.72 L775.276 1445.72  Z
  " fill="#009af9" fill-rule="evenodd" fill-opacity="1"/>
<polyline clip-path="url(#clip062)" style="stroke:#000000; stroke-linecap:round; stroke-linejoin:round; stroke-width:4; stroke-opacity:1; fill:none" points="
  775.276,1445.72 775.276,1445.72 794.227,1445.72 775.276,1445.72 
  "/>
<path clip-path="url(#clip062)" d="
M794.227 1445.72 L794.227 1445.72 L813.177 1445.72 L813.177 1445.72 L794.227 1445.72 L794.227 1445.72  Z
  " fill="#009af9" fill-rule="evenodd" fill-opacity="1"/>
<polyline clip-path="url(#clip062)" style="stroke:#000000; stroke-linecap:round; stroke-linejoin:round; stroke-width:4; stroke-opacity:1; fill:none" points="
  794.227,1445.72 794.227,1445.72 813.177,1445.72 794.227,1445.72 
  "/>
<path clip-path="url(#clip062)" d="
M813.177 1445.72 L813.177 1445.72 L832.128 1445.72 L832.128 1445.72 L813.177 1445.72 L813.177 1445.72  Z
  " fill="#009af9" fill-rule="evenodd" fill-opacity="1"/>
<polyline clip-path="url(#clip062)" style="stroke:#000000; stroke-linecap:round; stroke-linejoin:round; stroke-width:4; stroke-opacity:1; fill:none" points="
  813.177,1445.72 813.177,1445.72 832.128,1445.72 813.177,1445.72 
  "/>
<path clip-path="url(#clip062)" d="
M832.128 1445.72 L832.128 1445.72 L851.078 1445.72 L851.078 1445.72 L832.128 1445.72 L832.128 1445.72  Z
  " fill="#009af9" fill-rule="evenodd" fill-opacity="1"/>
<polyline clip-path="url(#clip062)" style="stroke:#000000; stroke-linecap:round; stroke-linejoin:round; stroke-width:4; stroke-opacity:1; fill:none" points="
  832.128,1445.72 832.128,1445.72 851.078,1445.72 832.128,1445.72 
  "/>
<path clip-path="url(#clip062)" d="
M851.078 1445.72 L851.078 1445.72 L870.029 1445.72 L870.029 1445.72 L851.078 1445.72 L851.078 1445.72  Z
  " fill="#009af9" fill-rule="evenodd" fill-opacity="1"/>
<polyline clip-path="url(#clip062)" style="stroke:#000000; stroke-linecap:round; stroke-linejoin:round; stroke-width:4; stroke-opacity:1; fill:none" points="
  851.078,1445.72 851.078,1445.72 870.029,1445.72 851.078,1445.72 
  "/>
<path clip-path="url(#clip062)" d="
M870.029 1445.72 L870.029 1445.72 L888.98 1445.72 L888.98 1445.72 L870.029 1445.72 L870.029 1445.72  Z
  " fill="#009af9" fill-rule="evenodd" fill-opacity="1"/>
<polyline clip-path="url(#clip062)" style="stroke:#000000; stroke-linecap:round; stroke-linejoin:round; stroke-width:4; stroke-opacity:1; fill:none" points="
  870.029,1445.72 870.029,1445.72 888.98,1445.72 870.029,1445.72 
  "/>
<path clip-path="url(#clip062)" d="
M888.98 1445.72 L888.98 1445.72 L907.93 1445.72 L907.93 1445.72 L888.98 1445.72 L888.98 1445.72  Z
  " fill="#009af9" fill-rule="evenodd" fill-opacity="1"/>
<polyline clip-path="url(#clip062)" style="stroke:#000000; stroke-linecap:round; stroke-linejoin:round; stroke-width:4; stroke-opacity:1; fill:none" points="
  888.98,1445.72 888.98,1445.72 907.93,1445.72 888.98,1445.72 
  "/>
<path clip-path="url(#clip062)" d="
M907.93 1445.72 L907.93 1445.72 L926.881 1445.72 L926.881 1445.72 L907.93 1445.72 L907.93 1445.72  Z
  " fill="#009af9" fill-rule="evenodd" fill-opacity="1"/>
<polyline clip-path="url(#clip062)" style="stroke:#000000; stroke-linecap:round; stroke-linejoin:round; stroke-width:4; stroke-opacity:1; fill:none" points="
  907.93,1445.72 907.93,1445.72 926.881,1445.72 907.93,1445.72 
  "/>
<path clip-path="url(#clip062)" d="
M926.881 1445.72 L926.881 1445.72 L945.831 1445.72 L945.831 1445.72 L926.881 1445.72 L926.881 1445.72  Z
  " fill="#009af9" fill-rule="evenodd" fill-opacity="1"/>
<polyline clip-path="url(#clip062)" style="stroke:#000000; stroke-linecap:round; stroke-linejoin:round; stroke-width:4; stroke-opacity:1; fill:none" points="
  926.881,1445.72 926.881,1445.72 945.831,1445.72 926.881,1445.72 
  "/>
<path clip-path="url(#clip062)" d="
M945.831 1445.72 L945.831 1445.72 L964.782 1445.72 L964.782 1445.72 L945.831 1445.72 L945.831 1445.72  Z
  " fill="#009af9" fill-rule="evenodd" fill-opacity="1"/>
<polyline clip-path="url(#clip062)" style="stroke:#000000; stroke-linecap:round; stroke-linejoin:round; stroke-width:4; stroke-opacity:1; fill:none" points="
  945.831,1445.72 945.831,1445.72 964.782,1445.72 945.831,1445.72 
  "/>
<path clip-path="url(#clip062)" d="
M964.782 1445.72 L964.782 1445.72 L983.732 1445.72 L983.732 1445.72 L964.782 1445.72 L964.782 1445.72  Z
  " fill="#009af9" fill-rule="evenodd" fill-opacity="1"/>
<polyline clip-path="url(#clip062)" style="stroke:#000000; stroke-linecap:round; stroke-linejoin:round; stroke-width:4; stroke-opacity:1; fill:none" points="
  964.782,1445.72 964.782,1445.72 983.732,1445.72 964.782,1445.72 
  "/>
<path clip-path="url(#clip062)" d="
M983.732 1445.72 L983.732 1445.72 L1002.68 1445.72 L1002.68 1445.72 L983.732 1445.72 L983.732 1445.72  Z
  " fill="#009af9" fill-rule="evenodd" fill-opacity="1"/>
<polyline clip-path="url(#clip062)" style="stroke:#000000; stroke-linecap:round; stroke-linejoin:round; stroke-width:4; stroke-opacity:1; fill:none" points="
  983.732,1445.72 983.732,1445.72 1002.68,1445.72 983.732,1445.72 
  "/>
<path clip-path="url(#clip062)" d="
M1002.68 1445.72 L1002.68 1445.72 L1021.63 1445.72 L1021.63 1445.72 L1002.68 1445.72 L1002.68 1445.72  Z
  " fill="#009af9" fill-rule="evenodd" fill-opacity="1"/>
<polyline clip-path="url(#clip062)" style="stroke:#000000; stroke-linecap:round; stroke-linejoin:round; stroke-width:4; stroke-opacity:1; fill:none" points="
  1002.68,1445.72 1002.68,1445.72 1021.63,1445.72 1002.68,1445.72 
  "/>
<path clip-path="url(#clip062)" d="
M1021.63 1445.72 L1021.63 1445.72 L1040.58 1445.72 L1040.58 1445.72 L1021.63 1445.72 L1021.63 1445.72  Z
  " fill="#009af9" fill-rule="evenodd" fill-opacity="1"/>
<polyline clip-path="url(#clip062)" style="stroke:#000000; stroke-linecap:round; stroke-linejoin:round; stroke-width:4; stroke-opacity:1; fill:none" points="
  1021.63,1445.72 1021.63,1445.72 1040.58,1445.72 1021.63,1445.72 
  "/>
<path clip-path="url(#clip062)" d="
M1040.58 1445.72 L1040.58 1445.72 L1059.53 1445.72 L1059.53 1445.72 L1040.58 1445.72 L1040.58 1445.72  Z
  " fill="#009af9" fill-rule="evenodd" fill-opacity="1"/>
<polyline clip-path="url(#clip062)" style="stroke:#000000; stroke-linecap:round; stroke-linejoin:round; stroke-width:4; stroke-opacity:1; fill:none" points="
  1040.58,1445.72 1040.58,1445.72 1059.53,1445.72 1040.58,1445.72 
  "/>
<path clip-path="url(#clip062)" d="
M1059.53 1445.72 L1059.53 1445.72 L1078.49 1445.72 L1078.49 1445.72 L1059.53 1445.72 L1059.53 1445.72  Z
  " fill="#009af9" fill-rule="evenodd" fill-opacity="1"/>
<polyline clip-path="url(#clip062)" style="stroke:#000000; stroke-linecap:round; stroke-linejoin:round; stroke-width:4; stroke-opacity:1; fill:none" points="
  1059.53,1445.72 1059.53,1445.72 1078.49,1445.72 1059.53,1445.72 
  "/>
<path clip-path="url(#clip062)" d="
M1078.49 1445.72 L1078.49 1445.72 L1097.44 1445.72 L1097.44 1445.72 L1078.49 1445.72 L1078.49 1445.72  Z
  " fill="#009af9" fill-rule="evenodd" fill-opacity="1"/>
<polyline clip-path="url(#clip062)" style="stroke:#000000; stroke-linecap:round; stroke-linejoin:round; stroke-width:4; stroke-opacity:1; fill:none" points="
  1078.49,1445.72 1078.49,1445.72 1097.44,1445.72 1078.49,1445.72 
  "/>
<path clip-path="url(#clip062)" d="
M1097.44 1445.72 L1097.44 1445.72 L1116.39 1445.72 L1116.39 1445.72 L1097.44 1445.72 L1097.44 1445.72  Z
  " fill="#009af9" fill-rule="evenodd" fill-opacity="1"/>
<polyline clip-path="url(#clip062)" style="stroke:#000000; stroke-linecap:round; stroke-linejoin:round; stroke-width:4; stroke-opacity:1; fill:none" points="
  1097.44,1445.72 1097.44,1445.72 1116.39,1445.72 1097.44,1445.72 
  "/>
<path clip-path="url(#clip062)" d="
M1116.39 1445.72 L1116.39 1445.72 L1135.34 1445.72 L1135.34 1445.72 L1116.39 1445.72 L1116.39 1445.72  Z
  " fill="#009af9" fill-rule="evenodd" fill-opacity="1"/>
<polyline clip-path="url(#clip062)" style="stroke:#000000; stroke-linecap:round; stroke-linejoin:round; stroke-width:4; stroke-opacity:1; fill:none" points="
  1116.39,1445.72 1116.39,1445.72 1135.34,1445.72 1116.39,1445.72 
  "/>
<path clip-path="url(#clip062)" d="
M1135.34 1445.72 L1135.34 1445.72 L1154.29 1445.72 L1154.29 1445.72 L1135.34 1445.72 L1135.34 1445.72  Z
  " fill="#009af9" fill-rule="evenodd" fill-opacity="1"/>
<polyline clip-path="url(#clip062)" style="stroke:#000000; stroke-linecap:round; stroke-linejoin:round; stroke-width:4; stroke-opacity:1; fill:none" points="
  1135.34,1445.72 1135.34,1445.72 1154.29,1445.72 1135.34,1445.72 
  "/>
<path clip-path="url(#clip062)" d="
M1154.29 1445.72 L1154.29 1445.72 L1173.24 1445.72 L1173.24 1445.72 L1154.29 1445.72 L1154.29 1445.72  Z
  " fill="#009af9" fill-rule="evenodd" fill-opacity="1"/>
<polyline clip-path="url(#clip062)" style="stroke:#000000; stroke-linecap:round; stroke-linejoin:round; stroke-width:4; stroke-opacity:1; fill:none" points="
  1154.29,1445.72 1154.29,1445.72 1173.24,1445.72 1154.29,1445.72 
  "/>
<path clip-path="url(#clip062)" d="
M1173.24 1445.72 L1173.24 1445.72 L1192.19 1445.72 L1192.19 1445.72 L1173.24 1445.72 L1173.24 1445.72  Z
  " fill="#009af9" fill-rule="evenodd" fill-opacity="1"/>
<polyline clip-path="url(#clip062)" style="stroke:#000000; stroke-linecap:round; stroke-linejoin:round; stroke-width:4; stroke-opacity:1; fill:none" points="
  1173.24,1445.72 1173.24,1445.72 1192.19,1445.72 1173.24,1445.72 
  "/>
<path clip-path="url(#clip062)" d="
M1192.19 1445.72 L1192.19 1445.72 L1211.14 1445.72 L1211.14 1445.72 L1192.19 1445.72 L1192.19 1445.72  Z
  " fill="#009af9" fill-rule="evenodd" fill-opacity="1"/>
<polyline clip-path="url(#clip062)" style="stroke:#000000; stroke-linecap:round; stroke-linejoin:round; stroke-width:4; stroke-opacity:1; fill:none" points="
  1192.19,1445.72 1192.19,1445.72 1211.14,1445.72 1192.19,1445.72 
  "/>
<path clip-path="url(#clip062)" d="
M1211.14 1445.72 L1211.14 1445.72 L1230.09 1445.72 L1230.09 1445.72 L1211.14 1445.72 L1211.14 1445.72  Z
  " fill="#009af9" fill-rule="evenodd" fill-opacity="1"/>
<polyline clip-path="url(#clip062)" style="stroke:#000000; stroke-linecap:round; stroke-linejoin:round; stroke-width:4; stroke-opacity:1; fill:none" points="
  1211.14,1445.72 1211.14,1445.72 1230.09,1445.72 1211.14,1445.72 
  "/>
<path clip-path="url(#clip062)" d="
M1230.09 1445.72 L1230.09 1445.72 L1249.04 1445.72 L1249.04 1445.72 L1230.09 1445.72 L1230.09 1445.72  Z
  " fill="#009af9" fill-rule="evenodd" fill-opacity="1"/>
<polyline clip-path="url(#clip062)" style="stroke:#000000; stroke-linecap:round; stroke-linejoin:round; stroke-width:4; stroke-opacity:1; fill:none" points="
  1230.09,1445.72 1230.09,1445.72 1249.04,1445.72 1230.09,1445.72 
  "/>
<path clip-path="url(#clip062)" d="
M1249.04 1445.72 L1249.04 1445.72 L1267.99 1445.72 L1267.99 1445.72 L1249.04 1445.72 L1249.04 1445.72  Z
  " fill="#009af9" fill-rule="evenodd" fill-opacity="1"/>
<polyline clip-path="url(#clip062)" style="stroke:#000000; stroke-linecap:round; stroke-linejoin:round; stroke-width:4; stroke-opacity:1; fill:none" points="
  1249.04,1445.72 1249.04,1445.72 1267.99,1445.72 1249.04,1445.72 
  "/>
<path clip-path="url(#clip062)" d="
M1267.99 1445.72 L1267.99 1445.72 L1286.94 1445.72 L1286.94 1445.72 L1267.99 1445.72 L1267.99 1445.72  Z
  " fill="#009af9" fill-rule="evenodd" fill-opacity="1"/>
<polyline clip-path="url(#clip062)" style="stroke:#000000; stroke-linecap:round; stroke-linejoin:round; stroke-width:4; stroke-opacity:1; fill:none" points="
  1267.99,1445.72 1267.99,1445.72 1286.94,1445.72 1267.99,1445.72 
  "/>
<path clip-path="url(#clip062)" d="
M1286.94 1445.72 L1286.94 1445.72 L1305.89 1445.72 L1305.89 1445.72 L1286.94 1445.72 L1286.94 1445.72  Z
  " fill="#009af9" fill-rule="evenodd" fill-opacity="1"/>
<polyline clip-path="url(#clip062)" style="stroke:#000000; stroke-linecap:round; stroke-linejoin:round; stroke-width:4; stroke-opacity:1; fill:none" points="
  1286.94,1445.72 1286.94,1445.72 1305.89,1445.72 1286.94,1445.72 
  "/>
<path clip-path="url(#clip062)" d="
M1305.89 1445.72 L1305.89 1445.72 L1324.84 1445.72 L1324.84 1445.72 L1305.89 1445.72 L1305.89 1445.72  Z
  " fill="#009af9" fill-rule="evenodd" fill-opacity="1"/>
<polyline clip-path="url(#clip062)" style="stroke:#000000; stroke-linecap:round; stroke-linejoin:round; stroke-width:4; stroke-opacity:1; fill:none" points="
  1305.89,1445.72 1305.89,1445.72 1324.84,1445.72 1305.89,1445.72 
  "/>
<path clip-path="url(#clip062)" d="
M1324.84 1445.72 L1324.84 1445.72 L1343.79 1445.72 L1343.79 1445.72 L1324.84 1445.72 L1324.84 1445.72  Z
  " fill="#009af9" fill-rule="evenodd" fill-opacity="1"/>
<polyline clip-path="url(#clip062)" style="stroke:#000000; stroke-linecap:round; stroke-linejoin:round; stroke-width:4; stroke-opacity:1; fill:none" points="
  1324.84,1445.72 1324.84,1445.72 1343.79,1445.72 1324.84,1445.72 
  "/>
<path clip-path="url(#clip062)" d="
M1343.79 1445.72 L1343.79 1445.72 L1362.74 1445.72 L1362.74 1445.72 L1343.79 1445.72 L1343.79 1445.72  Z
  " fill="#009af9" fill-rule="evenodd" fill-opacity="1"/>
<polyline clip-path="url(#clip062)" style="stroke:#000000; stroke-linecap:round; stroke-linejoin:round; stroke-width:4; stroke-opacity:1; fill:none" points="
  1343.79,1445.72 1343.79,1445.72 1362.74,1445.72 1343.79,1445.72 
  "/>
<path clip-path="url(#clip062)" d="
M1362.74 1445.72 L1362.74 1445.72 L1381.69 1445.72 L1381.69 1445.72 L1362.74 1445.72 L1362.74 1445.72  Z
  " fill="#009af9" fill-rule="evenodd" fill-opacity="1"/>
<polyline clip-path="url(#clip062)" style="stroke:#000000; stroke-linecap:round; stroke-linejoin:round; stroke-width:4; stroke-opacity:1; fill:none" points="
  1362.74,1445.72 1362.74,1445.72 1381.69,1445.72 1362.74,1445.72 
  "/>
<path clip-path="url(#clip062)" d="
M1381.69 1445.72 L1381.69 1445.72 L1400.65 1445.72 L1400.65 1445.72 L1381.69 1445.72 L1381.69 1445.72  Z
  " fill="#009af9" fill-rule="evenodd" fill-opacity="1"/>
<polyline clip-path="url(#clip062)" style="stroke:#000000; stroke-linecap:round; stroke-linejoin:round; stroke-width:4; stroke-opacity:1; fill:none" points="
  1381.69,1445.72 1381.69,1445.72 1400.65,1445.72 1381.69,1445.72 
  "/>
<path clip-path="url(#clip062)" d="
M1400.65 1445.72 L1400.65 1445.72 L1419.6 1445.72 L1419.6 1445.72 L1400.65 1445.72 L1400.65 1445.72  Z
  " fill="#009af9" fill-rule="evenodd" fill-opacity="1"/>
<polyline clip-path="url(#clip062)" style="stroke:#000000; stroke-linecap:round; stroke-linejoin:round; stroke-width:4; stroke-opacity:1; fill:none" points="
  1400.65,1445.72 1400.65,1445.72 1419.6,1445.72 1400.65,1445.72 
  "/>
<path clip-path="url(#clip062)" d="
M1419.6 1445.72 L1419.6 1445.72 L1438.55 1445.72 L1438.55 1445.72 L1419.6 1445.72 L1419.6 1445.72  Z
  " fill="#009af9" fill-rule="evenodd" fill-opacity="1"/>
<polyline clip-path="url(#clip062)" style="stroke:#000000; stroke-linecap:round; stroke-linejoin:round; stroke-width:4; stroke-opacity:1; fill:none" points="
  1419.6,1445.72 1419.6,1445.72 1438.55,1445.72 1419.6,1445.72 
  "/>
<path clip-path="url(#clip062)" d="
M1438.55 1445.72 L1438.55 1445.72 L1457.5 1445.72 L1457.5 1445.72 L1438.55 1445.72 L1438.55 1445.72  Z
  " fill="#009af9" fill-rule="evenodd" fill-opacity="1"/>
<polyline clip-path="url(#clip062)" style="stroke:#000000; stroke-linecap:round; stroke-linejoin:round; stroke-width:4; stroke-opacity:1; fill:none" points="
  1438.55,1445.72 1438.55,1445.72 1457.5,1445.72 1438.55,1445.72 
  "/>
<path clip-path="url(#clip062)" d="
M1457.5 1445.72 L1457.5 1445.72 L1476.45 1445.72 L1476.45 1445.72 L1457.5 1445.72 L1457.5 1445.72  Z
  " fill="#009af9" fill-rule="evenodd" fill-opacity="1"/>
<polyline clip-path="url(#clip062)" style="stroke:#000000; stroke-linecap:round; stroke-linejoin:round; stroke-width:4; stroke-opacity:1; fill:none" points="
  1457.5,1445.72 1457.5,1445.72 1476.45,1445.72 1457.5,1445.72 
  "/>
<path clip-path="url(#clip062)" d="
M1476.45 1445.72 L1476.45 1445.72 L1495.4 1445.72 L1495.4 1445.72 L1476.45 1445.72 L1476.45 1445.72  Z
  " fill="#009af9" fill-rule="evenodd" fill-opacity="1"/>
<polyline clip-path="url(#clip062)" style="stroke:#000000; stroke-linecap:round; stroke-linejoin:round; stroke-width:4; stroke-opacity:1; fill:none" points="
  1476.45,1445.72 1476.45,1445.72 1495.4,1445.72 1476.45,1445.72 
  "/>
<path clip-path="url(#clip062)" d="
M1495.4 1445.72 L1495.4 1445.72 L1514.35 1445.72 L1514.35 1445.72 L1495.4 1445.72 L1495.4 1445.72  Z
  " fill="#009af9" fill-rule="evenodd" fill-opacity="1"/>
<polyline clip-path="url(#clip062)" style="stroke:#000000; stroke-linecap:round; stroke-linejoin:round; stroke-width:4; stroke-opacity:1; fill:none" points="
  1495.4,1445.72 1495.4,1445.72 1514.35,1445.72 1495.4,1445.72 
  "/>
<path clip-path="url(#clip062)" d="
M1514.35 1445.72 L1514.35 1445.72 L1533.3 1445.72 L1533.3 1445.72 L1514.35 1445.72 L1514.35 1445.72  Z
  " fill="#009af9" fill-rule="evenodd" fill-opacity="1"/>
<polyline clip-path="url(#clip062)" style="stroke:#000000; stroke-linecap:round; stroke-linejoin:round; stroke-width:4; stroke-opacity:1; fill:none" points="
  1514.35,1445.72 1514.35,1445.72 1533.3,1445.72 1514.35,1445.72 
  "/>
<path clip-path="url(#clip062)" d="
M1533.3 1445.72 L1533.3 1445.72 L1552.25 1445.72 L1552.25 1445.72 L1533.3 1445.72 L1533.3 1445.72  Z
  " fill="#009af9" fill-rule="evenodd" fill-opacity="1"/>
<polyline clip-path="url(#clip062)" style="stroke:#000000; stroke-linecap:round; stroke-linejoin:round; stroke-width:4; stroke-opacity:1; fill:none" points="
  1533.3,1445.72 1533.3,1445.72 1552.25,1445.72 1533.3,1445.72 
  "/>
<path clip-path="url(#clip062)" d="
M1552.25 1445.72 L1552.25 1445.72 L1571.2 1445.72 L1571.2 1445.72 L1552.25 1445.72 L1552.25 1445.72  Z
  " fill="#009af9" fill-rule="evenodd" fill-opacity="1"/>
<polyline clip-path="url(#clip062)" style="stroke:#000000; stroke-linecap:round; stroke-linejoin:round; stroke-width:4; stroke-opacity:1; fill:none" points="
  1552.25,1445.72 1552.25,1445.72 1571.2,1445.72 1552.25,1445.72 
  "/>
<path clip-path="url(#clip062)" d="
M1571.2 1445.72 L1571.2 1445.72 L1590.15 1445.72 L1590.15 1445.72 L1571.2 1445.72 L1571.2 1445.72  Z
  " fill="#009af9" fill-rule="evenodd" fill-opacity="1"/>
<polyline clip-path="url(#clip062)" style="stroke:#000000; stroke-linecap:round; stroke-linejoin:round; stroke-width:4; stroke-opacity:1; fill:none" points="
  1571.2,1445.72 1571.2,1445.72 1590.15,1445.72 1571.2,1445.72 
  "/>
<path clip-path="url(#clip062)" d="
M1590.15 1445.72 L1590.15 1445.72 L1609.1 1445.72 L1609.1 1445.72 L1590.15 1445.72 L1590.15 1445.72  Z
  " fill="#009af9" fill-rule="evenodd" fill-opacity="1"/>
<polyline clip-path="url(#clip062)" style="stroke:#000000; stroke-linecap:round; stroke-linejoin:round; stroke-width:4; stroke-opacity:1; fill:none" points="
  1590.15,1445.72 1590.15,1445.72 1609.1,1445.72 1590.15,1445.72 
  "/>
<path clip-path="url(#clip062)" d="
M1609.1 1445.72 L1609.1 1445.72 L1628.05 1445.72 L1628.05 1445.72 L1609.1 1445.72 L1609.1 1445.72  Z
  " fill="#009af9" fill-rule="evenodd" fill-opacity="1"/>
<polyline clip-path="url(#clip062)" style="stroke:#000000; stroke-linecap:round; stroke-linejoin:round; stroke-width:4; stroke-opacity:1; fill:none" points="
  1609.1,1445.72 1609.1,1445.72 1628.05,1445.72 1609.1,1445.72 
  "/>
<path clip-path="url(#clip062)" d="
M1628.05 1445.72 L1628.05 1445.72 L1647 1445.72 L1647 1445.72 L1628.05 1445.72 L1628.05 1445.72  Z
  " fill="#009af9" fill-rule="evenodd" fill-opacity="1"/>
<polyline clip-path="url(#clip062)" style="stroke:#000000; stroke-linecap:round; stroke-linejoin:round; stroke-width:4; stroke-opacity:1; fill:none" points="
  1628.05,1445.72 1628.05,1445.72 1647,1445.72 1628.05,1445.72 
  "/>
<path clip-path="url(#clip062)" d="
M1647 1445.72 L1647 1445.72 L1665.95 1445.72 L1665.95 1445.72 L1647 1445.72 L1647 1445.72  Z
  " fill="#009af9" fill-rule="evenodd" fill-opacity="1"/>
<polyline clip-path="url(#clip062)" style="stroke:#000000; stroke-linecap:round; stroke-linejoin:round; stroke-width:4; stroke-opacity:1; fill:none" points="
  1647,1445.72 1647,1445.72 1665.95,1445.72 1647,1445.72 
  "/>
<path clip-path="url(#clip062)" d="
M1665.95 1445.72 L1665.95 1445.72 L1684.9 1445.72 L1684.9 1445.72 L1665.95 1445.72 L1665.95 1445.72  Z
  " fill="#009af9" fill-rule="evenodd" fill-opacity="1"/>
<polyline clip-path="url(#clip062)" style="stroke:#000000; stroke-linecap:round; stroke-linejoin:round; stroke-width:4; stroke-opacity:1; fill:none" points="
  1665.95,1445.72 1665.95,1445.72 1684.9,1445.72 1665.95,1445.72 
  "/>
<path clip-path="url(#clip062)" d="
M1684.9 1445.72 L1684.9 1445.72 L1703.85 1445.72 L1703.85 1445.72 L1684.9 1445.72 L1684.9 1445.72  Z
  " fill="#009af9" fill-rule="evenodd" fill-opacity="1"/>
<polyline clip-path="url(#clip062)" style="stroke:#000000; stroke-linecap:round; stroke-linejoin:round; stroke-width:4; stroke-opacity:1; fill:none" points="
  1684.9,1445.72 1684.9,1445.72 1703.85,1445.72 1684.9,1445.72 
  "/>
<path clip-path="url(#clip062)" d="
M1703.85 1445.72 L1703.85 1445.72 L1722.8 1445.72 L1722.8 1445.72 L1703.85 1445.72 L1703.85 1445.72  Z
  " fill="#009af9" fill-rule="evenodd" fill-opacity="1"/>
<polyline clip-path="url(#clip062)" style="stroke:#000000; stroke-linecap:round; stroke-linejoin:round; stroke-width:4; stroke-opacity:1; fill:none" points="
  1703.85,1445.72 1703.85,1445.72 1722.8,1445.72 1703.85,1445.72 
  "/>
<path clip-path="url(#clip062)" d="
M1722.8 1445.72 L1722.8 1445.72 L1741.76 1445.72 L1741.76 1445.72 L1722.8 1445.72 L1722.8 1445.72  Z
  " fill="#009af9" fill-rule="evenodd" fill-opacity="1"/>
<polyline clip-path="url(#clip062)" style="stroke:#000000; stroke-linecap:round; stroke-linejoin:round; stroke-width:4; stroke-opacity:1; fill:none" points="
  1722.8,1445.72 1722.8,1445.72 1741.76,1445.72 1722.8,1445.72 
  "/>
<path clip-path="url(#clip062)" d="
M1741.76 1445.72 L1741.76 1445.72 L1760.71 1445.72 L1760.71 1445.72 L1741.76 1445.72 L1741.76 1445.72  Z
  " fill="#009af9" fill-rule="evenodd" fill-opacity="1"/>
<polyline clip-path="url(#clip062)" style="stroke:#000000; stroke-linecap:round; stroke-linejoin:round; stroke-width:4; stroke-opacity:1; fill:none" points="
  1741.76,1445.72 1741.76,1445.72 1760.71,1445.72 1741.76,1445.72 
  "/>
<path clip-path="url(#clip062)" d="
M1760.71 1445.72 L1760.71 1445.72 L1779.66 1445.72 L1779.66 1445.72 L1760.71 1445.72 L1760.71 1445.72  Z
  " fill="#009af9" fill-rule="evenodd" fill-opacity="1"/>
<polyline clip-path="url(#clip062)" style="stroke:#000000; stroke-linecap:round; stroke-linejoin:round; stroke-width:4; stroke-opacity:1; fill:none" points="
  1760.71,1445.72 1760.71,1445.72 1779.66,1445.72 1760.71,1445.72 
  "/>
<path clip-path="url(#clip062)" d="
M1779.66 1445.72 L1779.66 1445.72 L1798.61 1445.72 L1798.61 1445.72 L1779.66 1445.72 L1779.66 1445.72  Z
  " fill="#009af9" fill-rule="evenodd" fill-opacity="1"/>
<polyline clip-path="url(#clip062)" style="stroke:#000000; stroke-linecap:round; stroke-linejoin:round; stroke-width:4; stroke-opacity:1; fill:none" points="
  1779.66,1445.72 1779.66,1445.72 1798.61,1445.72 1779.66,1445.72 
  "/>
<path clip-path="url(#clip062)" d="
M1798.61 1445.72 L1798.61 1445.72 L1817.56 1445.72 L1817.56 1445.72 L1798.61 1445.72 L1798.61 1445.72  Z
  " fill="#009af9" fill-rule="evenodd" fill-opacity="1"/>
<polyline clip-path="url(#clip062)" style="stroke:#000000; stroke-linecap:round; stroke-linejoin:round; stroke-width:4; stroke-opacity:1; fill:none" points="
  1798.61,1445.72 1798.61,1445.72 1817.56,1445.72 1798.61,1445.72 
  "/>
<path clip-path="url(#clip062)" d="
M1817.56 1445.72 L1817.56 1445.72 L1836.51 1445.72 L1836.51 1445.72 L1817.56 1445.72 L1817.56 1445.72  Z
  " fill="#009af9" fill-rule="evenodd" fill-opacity="1"/>
<polyline clip-path="url(#clip062)" style="stroke:#000000; stroke-linecap:round; stroke-linejoin:round; stroke-width:4; stroke-opacity:1; fill:none" points="
  1817.56,1445.72 1817.56,1445.72 1836.51,1445.72 1817.56,1445.72 
  "/>
<path clip-path="url(#clip062)" d="
M1836.51 1445.72 L1836.51 1445.72 L1855.46 1445.72 L1855.46 1445.72 L1836.51 1445.72 L1836.51 1445.72  Z
  " fill="#009af9" fill-rule="evenodd" fill-opacity="1"/>
<polyline clip-path="url(#clip062)" style="stroke:#000000; stroke-linecap:round; stroke-linejoin:round; stroke-width:4; stroke-opacity:1; fill:none" points="
  1836.51,1445.72 1836.51,1445.72 1855.46,1445.72 1836.51,1445.72 
  "/>
<path clip-path="url(#clip062)" d="
M1855.46 1445.72 L1855.46 1445.72 L1874.41 1445.72 L1874.41 1445.72 L1855.46 1445.72 L1855.46 1445.72  Z
  " fill="#009af9" fill-rule="evenodd" fill-opacity="1"/>
<polyline clip-path="url(#clip062)" style="stroke:#000000; stroke-linecap:round; stroke-linejoin:round; stroke-width:4; stroke-opacity:1; fill:none" points="
  1855.46,1445.72 1855.46,1445.72 1874.41,1445.72 1855.46,1445.72 
  "/>
<path clip-path="url(#clip062)" d="
M1874.41 1445.72 L1874.41 1445.72 L1893.36 1445.72 L1893.36 1445.72 L1874.41 1445.72 L1874.41 1445.72  Z
  " fill="#009af9" fill-rule="evenodd" fill-opacity="1"/>
<polyline clip-path="url(#clip062)" style="stroke:#000000; stroke-linecap:round; stroke-linejoin:round; stroke-width:4; stroke-opacity:1; fill:none" points="
  1874.41,1445.72 1874.41,1445.72 1893.36,1445.72 1874.41,1445.72 
  "/>
<path clip-path="url(#clip062)" d="
M1893.36 1445.72 L1893.36 1445.72 L1912.31 1445.72 L1912.31 1445.72 L1893.36 1445.72 L1893.36 1445.72  Z
  " fill="#009af9" fill-rule="evenodd" fill-opacity="1"/>
<polyline clip-path="url(#clip062)" style="stroke:#000000; stroke-linecap:round; stroke-linejoin:round; stroke-width:4; stroke-opacity:1; fill:none" points="
  1893.36,1445.72 1893.36,1445.72 1912.31,1445.72 1893.36,1445.72 
  "/>
<path clip-path="url(#clip062)" d="
M1912.31 1445.72 L1912.31 1445.72 L1931.26 1445.72 L1931.26 1445.72 L1912.31 1445.72 L1912.31 1445.72  Z
  " fill="#009af9" fill-rule="evenodd" fill-opacity="1"/>
<polyline clip-path="url(#clip062)" style="stroke:#000000; stroke-linecap:round; stroke-linejoin:round; stroke-width:4; stroke-opacity:1; fill:none" points="
  1912.31,1445.72 1912.31,1445.72 1931.26,1445.72 1912.31,1445.72 
  "/>
<path clip-path="url(#clip062)" d="
M1931.26 1445.72 L1931.26 1445.72 L1950.21 1445.72 L1950.21 1445.72 L1931.26 1445.72 L1931.26 1445.72  Z
  " fill="#009af9" fill-rule="evenodd" fill-opacity="1"/>
<polyline clip-path="url(#clip062)" style="stroke:#000000; stroke-linecap:round; stroke-linejoin:round; stroke-width:4; stroke-opacity:1; fill:none" points="
  1931.26,1445.72 1931.26,1445.72 1950.21,1445.72 1931.26,1445.72 
  "/>
<path clip-path="url(#clip062)" d="
M1950.21 1445.72 L1950.21 1445.72 L1969.16 1445.72 L1969.16 1445.72 L1950.21 1445.72 L1950.21 1445.72  Z
  " fill="#009af9" fill-rule="evenodd" fill-opacity="1"/>
<polyline clip-path="url(#clip062)" style="stroke:#000000; stroke-linecap:round; stroke-linejoin:round; stroke-width:4; stroke-opacity:1; fill:none" points="
  1950.21,1445.72 1950.21,1445.72 1969.16,1445.72 1950.21,1445.72 
  "/>
<path clip-path="url(#clip062)" d="
M1969.16 1445.72 L1969.16 1445.72 L1988.11 1445.72 L1988.11 1445.72 L1969.16 1445.72 L1969.16 1445.72  Z
  " fill="#009af9" fill-rule="evenodd" fill-opacity="1"/>
<polyline clip-path="url(#clip062)" style="stroke:#000000; stroke-linecap:round; stroke-linejoin:round; stroke-width:4; stroke-opacity:1; fill:none" points="
  1969.16,1445.72 1969.16,1445.72 1988.11,1445.72 1969.16,1445.72 
  "/>
<path clip-path="url(#clip062)" d="
M1988.11 1445.72 L1988.11 1445.72 L2007.06 1445.72 L2007.06 1445.72 L1988.11 1445.72 L1988.11 1445.72  Z
  " fill="#009af9" fill-rule="evenodd" fill-opacity="1"/>
<polyline clip-path="url(#clip062)" style="stroke:#000000; stroke-linecap:round; stroke-linejoin:round; stroke-width:4; stroke-opacity:1; fill:none" points="
  1988.11,1445.72 1988.11,1445.72 2007.06,1445.72 1988.11,1445.72 
  "/>
<path clip-path="url(#clip062)" d="
M2007.06 1445.72 L2007.06 1445.72 L2026.01 1445.72 L2026.01 1445.72 L2007.06 1445.72 L2007.06 1445.72  Z
  " fill="#009af9" fill-rule="evenodd" fill-opacity="1"/>
<polyline clip-path="url(#clip062)" style="stroke:#000000; stroke-linecap:round; stroke-linejoin:round; stroke-width:4; stroke-opacity:1; fill:none" points="
  2007.06,1445.72 2007.06,1445.72 2026.01,1445.72 2007.06,1445.72 
  "/>
<path clip-path="url(#clip062)" d="
M2026.01 1445.72 L2026.01 1445.72 L2044.96 1445.72 L2044.96 1445.72 L2026.01 1445.72 L2026.01 1445.72  Z
  " fill="#009af9" fill-rule="evenodd" fill-opacity="1"/>
<polyline clip-path="url(#clip062)" style="stroke:#000000; stroke-linecap:round; stroke-linejoin:round; stroke-width:4; stroke-opacity:1; fill:none" points="
  2026.01,1445.72 2026.01,1445.72 2044.96,1445.72 2026.01,1445.72 
  "/>
<path clip-path="url(#clip062)" d="
M2044.96 1445.72 L2044.96 1445.72 L2063.92 1445.72 L2063.92 1445.72 L2044.96 1445.72 L2044.96 1445.72  Z
  " fill="#009af9" fill-rule="evenodd" fill-opacity="1"/>
<polyline clip-path="url(#clip062)" style="stroke:#000000; stroke-linecap:round; stroke-linejoin:round; stroke-width:4; stroke-opacity:1; fill:none" points="
  2044.96,1445.72 2044.96,1445.72 2063.92,1445.72 2044.96,1445.72 
  "/>
<path clip-path="url(#clip062)" d="
M2063.92 1445.72 L2063.92 1445.72 L2082.87 1445.72 L2082.87 1445.72 L2063.92 1445.72 L2063.92 1445.72  Z
  " fill="#009af9" fill-rule="evenodd" fill-opacity="1"/>
<polyline clip-path="url(#clip062)" style="stroke:#000000; stroke-linecap:round; stroke-linejoin:round; stroke-width:4; stroke-opacity:1; fill:none" points="
  2063.92,1445.72 2063.92,1445.72 2082.87,1445.72 2063.92,1445.72 
  "/>
<path clip-path="url(#clip062)" d="
M2082.87 1445.72 L2082.87 1445.72 L2101.82 1445.72 L2101.82 1445.72 L2082.87 1445.72 L2082.87 1445.72  Z
  " fill="#009af9" fill-rule="evenodd" fill-opacity="1"/>
<polyline clip-path="url(#clip062)" style="stroke:#000000; stroke-linecap:round; stroke-linejoin:round; stroke-width:4; stroke-opacity:1; fill:none" points="
  2082.87,1445.72 2082.87,1445.72 2101.82,1445.72 2082.87,1445.72 
  "/>
<path clip-path="url(#clip062)" d="
M2101.82 1445.72 L2101.82 1445.72 L2120.77 1445.72 L2120.77 1445.72 L2101.82 1445.72 L2101.82 1445.72  Z
  " fill="#009af9" fill-rule="evenodd" fill-opacity="1"/>
<polyline clip-path="url(#clip062)" style="stroke:#000000; stroke-linecap:round; stroke-linejoin:round; stroke-width:4; stroke-opacity:1; fill:none" points="
  2101.82,1445.72 2101.82,1445.72 2120.77,1445.72 2101.82,1445.72 
  "/>
<path clip-path="url(#clip062)" d="
M2120.77 1445.72 L2120.77 1445.72 L2139.72 1445.72 L2139.72 1445.72 L2120.77 1445.72 L2120.77 1445.72  Z
  " fill="#009af9" fill-rule="evenodd" fill-opacity="1"/>
<polyline clip-path="url(#clip062)" style="stroke:#000000; stroke-linecap:round; stroke-linejoin:round; stroke-width:4; stroke-opacity:1; fill:none" points="
  2120.77,1445.72 2120.77,1445.72 2139.72,1445.72 2120.77,1445.72 
  "/>
<path clip-path="url(#clip062)" d="
M2139.72 1445.72 L2139.72 1445.72 L2158.67 1445.72 L2158.67 1445.72 L2139.72 1445.72 L2139.72 1445.72  Z
  " fill="#009af9" fill-rule="evenodd" fill-opacity="1"/>
<polyline clip-path="url(#clip062)" style="stroke:#000000; stroke-linecap:round; stroke-linejoin:round; stroke-width:4; stroke-opacity:1; fill:none" points="
  2139.72,1445.72 2139.72,1445.72 2158.67,1445.72 2139.72,1445.72 
  "/>
<path clip-path="url(#clip062)" d="
M2158.67 1445.72 L2158.67 1445.72 L2177.62 1445.72 L2177.62 1445.72 L2158.67 1445.72 L2158.67 1445.72  Z
  " fill="#009af9" fill-rule="evenodd" fill-opacity="1"/>
<polyline clip-path="url(#clip062)" style="stroke:#000000; stroke-linecap:round; stroke-linejoin:round; stroke-width:4; stroke-opacity:1; fill:none" points="
  2158.67,1445.72 2158.67,1445.72 2177.62,1445.72 2158.67,1445.72 
  "/>
<path clip-path="url(#clip062)" d="
M2177.62 1445.72 L2177.62 1445.72 L2196.57 1445.72 L2196.57 1445.72 L2177.62 1445.72 L2177.62 1445.72  Z
  " fill="#009af9" fill-rule="evenodd" fill-opacity="1"/>
<polyline clip-path="url(#clip062)" style="stroke:#000000; stroke-linecap:round; stroke-linejoin:round; stroke-width:4; stroke-opacity:1; fill:none" points="
  2177.62,1445.72 2177.62,1445.72 2196.57,1445.72 2177.62,1445.72 
  "/>
<path clip-path="url(#clip062)" d="
M2196.57 1445.72 L2196.57 1445.72 L2215.52 1445.72 L2215.52 1445.72 L2196.57 1445.72 L2196.57 1445.72  Z
  " fill="#009af9" fill-rule="evenodd" fill-opacity="1"/>
<polyline clip-path="url(#clip062)" style="stroke:#000000; stroke-linecap:round; stroke-linejoin:round; stroke-width:4; stroke-opacity:1; fill:none" points="
  2196.57,1445.72 2196.57,1445.72 2215.52,1445.72 2196.57,1445.72 
  "/>
<path clip-path="url(#clip062)" d="
M2215.52 99.872 L2215.52 1445.72 L2234.47 1445.72 L2234.47 99.872 L2215.52 99.872 L2215.52 99.872  Z
  " fill="#009af9" fill-rule="evenodd" fill-opacity="1"/>
<polyline clip-path="url(#clip062)" style="stroke:#000000; stroke-linecap:round; stroke-linejoin:round; stroke-width:4; stroke-opacity:1; fill:none" points="
  2215.52,99.872 2215.52,1445.72 2234.47,1445.72 2234.47,99.872 2215.52,99.872 
  "/>
<circle clip-path="url(#clip062)" style="fill:#009af9; stroke:none; fill-opacity:0" cx="329.938" cy="87.9763" r="2"/>
<circle clip-path="url(#clip062)" style="fill:#009af9; stroke:none; fill-opacity:0" cx="348.888" cy="1445.72" r="2"/>
<circle clip-path="url(#clip062)" style="fill:#009af9; stroke:none; fill-opacity:0" cx="367.839" cy="1445.72" r="2"/>
<circle clip-path="url(#clip062)" style="fill:#009af9; stroke:none; fill-opacity:0" cx="386.789" cy="1445.72" r="2"/>
<circle clip-path="url(#clip062)" style="fill:#009af9; stroke:none; fill-opacity:0" cx="405.74" cy="1445.72" r="2"/>
<circle clip-path="url(#clip062)" style="fill:#009af9; stroke:none; fill-opacity:0" cx="424.691" cy="1445.72" r="2"/>
<circle clip-path="url(#clip062)" style="fill:#009af9; stroke:none; fill-opacity:0" cx="443.641" cy="1445.72" r="2"/>
<circle clip-path="url(#clip062)" style="fill:#009af9; stroke:none; fill-opacity:0" cx="462.592" cy="1445.72" r="2"/>
<circle clip-path="url(#clip062)" style="fill:#009af9; stroke:none; fill-opacity:0" cx="481.542" cy="1445.72" r="2"/>
<circle clip-path="url(#clip062)" style="fill:#009af9; stroke:none; fill-opacity:0" cx="500.493" cy="1445.72" r="2"/>
<circle clip-path="url(#clip062)" style="fill:#009af9; stroke:none; fill-opacity:0" cx="519.443" cy="1445.72" r="2"/>
<circle clip-path="url(#clip062)" style="fill:#009af9; stroke:none; fill-opacity:0" cx="538.394" cy="1445.72" r="2"/>
<circle clip-path="url(#clip062)" style="fill:#009af9; stroke:none; fill-opacity:0" cx="557.345" cy="1445.72" r="2"/>
<circle clip-path="url(#clip062)" style="fill:#009af9; stroke:none; fill-opacity:0" cx="576.295" cy="1445.72" r="2"/>
<circle clip-path="url(#clip062)" style="fill:#009af9; stroke:none; fill-opacity:0" cx="595.246" cy="1445.72" r="2"/>
<circle clip-path="url(#clip062)" style="fill:#009af9; stroke:none; fill-opacity:0" cx="614.196" cy="1445.72" r="2"/>
<circle clip-path="url(#clip062)" style="fill:#009af9; stroke:none; fill-opacity:0" cx="633.147" cy="1445.72" r="2"/>
<circle clip-path="url(#clip062)" style="fill:#009af9; stroke:none; fill-opacity:0" cx="652.097" cy="1445.72" r="2"/>
<circle clip-path="url(#clip062)" style="fill:#009af9; stroke:none; fill-opacity:0" cx="671.048" cy="1445.72" r="2"/>
<circle clip-path="url(#clip062)" style="fill:#009af9; stroke:none; fill-opacity:0" cx="689.999" cy="1445.72" r="2"/>
<circle clip-path="url(#clip062)" style="fill:#009af9; stroke:none; fill-opacity:0" cx="708.949" cy="1445.72" r="2"/>
<circle clip-path="url(#clip062)" style="fill:#009af9; stroke:none; fill-opacity:0" cx="727.9" cy="1445.72" r="2"/>
<circle clip-path="url(#clip062)" style="fill:#009af9; stroke:none; fill-opacity:0" cx="746.85" cy="1445.72" r="2"/>
<circle clip-path="url(#clip062)" style="fill:#009af9; stroke:none; fill-opacity:0" cx="765.801" cy="1445.72" r="2"/>
<circle clip-path="url(#clip062)" style="fill:#009af9; stroke:none; fill-opacity:0" cx="784.751" cy="1445.72" r="2"/>
<circle clip-path="url(#clip062)" style="fill:#009af9; stroke:none; fill-opacity:0" cx="803.702" cy="1445.72" r="2"/>
<circle clip-path="url(#clip062)" style="fill:#009af9; stroke:none; fill-opacity:0" cx="822.653" cy="1445.72" r="2"/>
<circle clip-path="url(#clip062)" style="fill:#009af9; stroke:none; fill-opacity:0" cx="841.603" cy="1445.72" r="2"/>
<circle clip-path="url(#clip062)" style="fill:#009af9; stroke:none; fill-opacity:0" cx="860.554" cy="1445.72" r="2"/>
<circle clip-path="url(#clip062)" style="fill:#009af9; stroke:none; fill-opacity:0" cx="879.504" cy="1445.72" r="2"/>
<circle clip-path="url(#clip062)" style="fill:#009af9; stroke:none; fill-opacity:0" cx="898.455" cy="1445.72" r="2"/>
<circle clip-path="url(#clip062)" style="fill:#009af9; stroke:none; fill-opacity:0" cx="917.405" cy="1445.72" r="2"/>
<circle clip-path="url(#clip062)" style="fill:#009af9; stroke:none; fill-opacity:0" cx="936.356" cy="1445.72" r="2"/>
<circle clip-path="url(#clip062)" style="fill:#009af9; stroke:none; fill-opacity:0" cx="955.307" cy="1445.72" r="2"/>
<circle clip-path="url(#clip062)" style="fill:#009af9; stroke:none; fill-opacity:0" cx="974.257" cy="1445.72" r="2"/>
<circle clip-path="url(#clip062)" style="fill:#009af9; stroke:none; fill-opacity:0" cx="993.208" cy="1445.72" r="2"/>
<circle clip-path="url(#clip062)" style="fill:#009af9; stroke:none; fill-opacity:0" cx="1012.16" cy="1445.72" r="2"/>
<circle clip-path="url(#clip062)" style="fill:#009af9; stroke:none; fill-opacity:0" cx="1031.11" cy="1445.72" r="2"/>
<circle clip-path="url(#clip062)" style="fill:#009af9; stroke:none; fill-opacity:0" cx="1050.06" cy="1445.72" r="2"/>
<circle clip-path="url(#clip062)" style="fill:#009af9; stroke:none; fill-opacity:0" cx="1069.01" cy="1445.72" r="2"/>
<circle clip-path="url(#clip062)" style="fill:#009af9; stroke:none; fill-opacity:0" cx="1087.96" cy="1445.72" r="2"/>
<circle clip-path="url(#clip062)" style="fill:#009af9; stroke:none; fill-opacity:0" cx="1106.91" cy="1445.72" r="2"/>
<circle clip-path="url(#clip062)" style="fill:#009af9; stroke:none; fill-opacity:0" cx="1125.86" cy="1445.72" r="2"/>
<circle clip-path="url(#clip062)" style="fill:#009af9; stroke:none; fill-opacity:0" cx="1144.81" cy="1445.72" r="2"/>
<circle clip-path="url(#clip062)" style="fill:#009af9; stroke:none; fill-opacity:0" cx="1163.76" cy="1445.72" r="2"/>
<circle clip-path="url(#clip062)" style="fill:#009af9; stroke:none; fill-opacity:0" cx="1182.71" cy="1445.72" r="2"/>
<circle clip-path="url(#clip062)" style="fill:#009af9; stroke:none; fill-opacity:0" cx="1201.66" cy="1445.72" r="2"/>
<circle clip-path="url(#clip062)" style="fill:#009af9; stroke:none; fill-opacity:0" cx="1220.61" cy="1445.72" r="2"/>
<circle clip-path="url(#clip062)" style="fill:#009af9; stroke:none; fill-opacity:0" cx="1239.57" cy="1445.72" r="2"/>
<circle clip-path="url(#clip062)" style="fill:#009af9; stroke:none; fill-opacity:0" cx="1258.52" cy="1445.72" r="2"/>
<circle clip-path="url(#clip062)" style="fill:#009af9; stroke:none; fill-opacity:0" cx="1277.47" cy="1445.72" r="2"/>
<circle clip-path="url(#clip062)" style="fill:#009af9; stroke:none; fill-opacity:0" cx="1296.42" cy="1445.72" r="2"/>
<circle clip-path="url(#clip062)" style="fill:#009af9; stroke:none; fill-opacity:0" cx="1315.37" cy="1445.72" r="2"/>
<circle clip-path="url(#clip062)" style="fill:#009af9; stroke:none; fill-opacity:0" cx="1334.32" cy="1445.72" r="2"/>
<circle clip-path="url(#clip062)" style="fill:#009af9; stroke:none; fill-opacity:0" cx="1353.27" cy="1445.72" r="2"/>
<circle clip-path="url(#clip062)" style="fill:#009af9; stroke:none; fill-opacity:0" cx="1372.22" cy="1445.72" r="2"/>
<circle clip-path="url(#clip062)" style="fill:#009af9; stroke:none; fill-opacity:0" cx="1391.17" cy="1445.72" r="2"/>
<circle clip-path="url(#clip062)" style="fill:#009af9; stroke:none; fill-opacity:0" cx="1410.12" cy="1445.72" r="2"/>
<circle clip-path="url(#clip062)" style="fill:#009af9; stroke:none; fill-opacity:0" cx="1429.07" cy="1445.72" r="2"/>
<circle clip-path="url(#clip062)" style="fill:#009af9; stroke:none; fill-opacity:0" cx="1448.02" cy="1445.72" r="2"/>
<circle clip-path="url(#clip062)" style="fill:#009af9; stroke:none; fill-opacity:0" cx="1466.97" cy="1445.72" r="2"/>
<circle clip-path="url(#clip062)" style="fill:#009af9; stroke:none; fill-opacity:0" cx="1485.92" cy="1445.72" r="2"/>
<circle clip-path="url(#clip062)" style="fill:#009af9; stroke:none; fill-opacity:0" cx="1504.87" cy="1445.72" r="2"/>
<circle clip-path="url(#clip062)" style="fill:#009af9; stroke:none; fill-opacity:0" cx="1523.82" cy="1445.72" r="2"/>
<circle clip-path="url(#clip062)" style="fill:#009af9; stroke:none; fill-opacity:0" cx="1542.77" cy="1445.72" r="2"/>
<circle clip-path="url(#clip062)" style="fill:#009af9; stroke:none; fill-opacity:0" cx="1561.72" cy="1445.72" r="2"/>
<circle clip-path="url(#clip062)" style="fill:#009af9; stroke:none; fill-opacity:0" cx="1580.68" cy="1445.72" r="2"/>
<circle clip-path="url(#clip062)" style="fill:#009af9; stroke:none; fill-opacity:0" cx="1599.63" cy="1445.72" r="2"/>
<circle clip-path="url(#clip062)" style="fill:#009af9; stroke:none; fill-opacity:0" cx="1618.58" cy="1445.72" r="2"/>
<circle clip-path="url(#clip062)" style="fill:#009af9; stroke:none; fill-opacity:0" cx="1637.53" cy="1445.72" r="2"/>
<circle clip-path="url(#clip062)" style="fill:#009af9; stroke:none; fill-opacity:0" cx="1656.48" cy="1445.72" r="2"/>
<circle clip-path="url(#clip062)" style="fill:#009af9; stroke:none; fill-opacity:0" cx="1675.43" cy="1445.72" r="2"/>
<circle clip-path="url(#clip062)" style="fill:#009af9; stroke:none; fill-opacity:0" cx="1694.38" cy="1445.72" r="2"/>
<circle clip-path="url(#clip062)" style="fill:#009af9; stroke:none; fill-opacity:0" cx="1713.33" cy="1445.72" r="2"/>
<circle clip-path="url(#clip062)" style="fill:#009af9; stroke:none; fill-opacity:0" cx="1732.28" cy="1445.72" r="2"/>
<circle clip-path="url(#clip062)" style="fill:#009af9; stroke:none; fill-opacity:0" cx="1751.23" cy="1445.72" r="2"/>
<circle clip-path="url(#clip062)" style="fill:#009af9; stroke:none; fill-opacity:0" cx="1770.18" cy="1445.72" r="2"/>
<circle clip-path="url(#clip062)" style="fill:#009af9; stroke:none; fill-opacity:0" cx="1789.13" cy="1445.72" r="2"/>
<circle clip-path="url(#clip062)" style="fill:#009af9; stroke:none; fill-opacity:0" cx="1808.08" cy="1445.72" r="2"/>
<circle clip-path="url(#clip062)" style="fill:#009af9; stroke:none; fill-opacity:0" cx="1827.03" cy="1445.72" r="2"/>
<circle clip-path="url(#clip062)" style="fill:#009af9; stroke:none; fill-opacity:0" cx="1845.98" cy="1445.72" r="2"/>
<circle clip-path="url(#clip062)" style="fill:#009af9; stroke:none; fill-opacity:0" cx="1864.93" cy="1445.72" r="2"/>
<circle clip-path="url(#clip062)" style="fill:#009af9; stroke:none; fill-opacity:0" cx="1883.88" cy="1445.72" r="2"/>
<circle clip-path="url(#clip062)" style="fill:#009af9; stroke:none; fill-opacity:0" cx="1902.84" cy="1445.72" r="2"/>
<circle clip-path="url(#clip062)" style="fill:#009af9; stroke:none; fill-opacity:0" cx="1921.79" cy="1445.72" r="2"/>
<circle clip-path="url(#clip062)" style="fill:#009af9; stroke:none; fill-opacity:0" cx="1940.74" cy="1445.72" r="2"/>
<circle clip-path="url(#clip062)" style="fill:#009af9; stroke:none; fill-opacity:0" cx="1959.69" cy="1445.72" r="2"/>
<circle clip-path="url(#clip062)" style="fill:#009af9; stroke:none; fill-opacity:0" cx="1978.64" cy="1445.72" r="2"/>
<circle clip-path="url(#clip062)" style="fill:#009af9; stroke:none; fill-opacity:0" cx="1997.59" cy="1445.72" r="2"/>
<circle clip-path="url(#clip062)" style="fill:#009af9; stroke:none; fill-opacity:0" cx="2016.54" cy="1445.72" r="2"/>
<circle clip-path="url(#clip062)" style="fill:#009af9; stroke:none; fill-opacity:0" cx="2035.49" cy="1445.72" r="2"/>
<circle clip-path="url(#clip062)" style="fill:#009af9; stroke:none; fill-opacity:0" cx="2054.44" cy="1445.72" r="2"/>
<circle clip-path="url(#clip062)" style="fill:#009af9; stroke:none; fill-opacity:0" cx="2073.39" cy="1445.72" r="2"/>
<circle clip-path="url(#clip062)" style="fill:#009af9; stroke:none; fill-opacity:0" cx="2092.34" cy="1445.72" r="2"/>
<circle clip-path="url(#clip062)" style="fill:#009af9; stroke:none; fill-opacity:0" cx="2111.29" cy="1445.72" r="2"/>
<circle clip-path="url(#clip062)" style="fill:#009af9; stroke:none; fill-opacity:0" cx="2130.24" cy="1445.72" r="2"/>
<circle clip-path="url(#clip062)" style="fill:#009af9; stroke:none; fill-opacity:0" cx="2149.19" cy="1445.72" r="2"/>
<circle clip-path="url(#clip062)" style="fill:#009af9; stroke:none; fill-opacity:0" cx="2168.14" cy="1445.72" r="2"/>
<circle clip-path="url(#clip062)" style="fill:#009af9; stroke:none; fill-opacity:0" cx="2187.09" cy="1445.72" r="2"/>
<circle clip-path="url(#clip062)" style="fill:#009af9; stroke:none; fill-opacity:0" cx="2206.04" cy="1445.72" r="2"/>
<circle clip-path="url(#clip062)" style="fill:#009af9; stroke:none; fill-opacity:0" cx="2224.99" cy="99.872" r="2"/>
<path clip-path="url(#clip060)" d="
M1988.64 198.898 L2281.07 198.898 L2281.07 95.2176 L1988.64 95.2176  Z
  " fill="#ffffff" fill-rule="evenodd" fill-opacity="1"/>
<polyline clip-path="url(#clip060)" style="stroke:#000000; stroke-linecap:round; stroke-linejoin:round; stroke-width:4; stroke-opacity:1; fill:none" points="
  1988.64,198.898 2281.07,198.898 2281.07,95.2176 1988.64,95.2176 1988.64,198.898 
  "/>
<path clip-path="url(#clip060)" d="
M2012.64 167.794 L2156.64 167.794 L2156.64 126.322 L2012.64 126.322 L2012.64 167.794  Z
  " fill="#009af9" fill-rule="evenodd" fill-opacity="1"/>
<polyline clip-path="url(#clip060)" style="stroke:#000000; stroke-linecap:round; stroke-linejoin:round; stroke-width:4; stroke-opacity:1; fill:none" points="
  2012.64,167.794 2156.64,167.794 2156.64,126.322 2012.64,126.322 2012.64,167.794 
  "/>
<path clip-path="url(#clip060)" d="M2194.48 166.745 Q2192.68 171.375 2190.96 172.787 Q2189.25 174.199 2186.38 174.199 L2182.98 174.199 L2182.98 170.634 L2185.48 170.634 Q2187.24 170.634 2188.21 169.8 Q2189.18 168.967 2190.36 165.865 L2191.13 163.921 L2180.64 138.412 L2185.15 138.412 L2193.26 158.689 L2201.36 138.412 L2205.87 138.412 L2194.48 166.745 Z" fill="#000000" fill-rule="evenodd" fill-opacity="1" /><path clip-path="url(#clip060)" d="M2213.16 160.402 L2220.8 160.402 L2220.8 134.037 L2212.49 135.703 L2212.49 131.444 L2220.76 129.778 L2225.43 129.778 L2225.43 160.402 L2233.07 160.402 L2233.07 164.338 L2213.16 164.338 L2213.16 160.402 Z" fill="#000000" fill-rule="evenodd" fill-opacity="1" /></svg>
